<!-- Generator: Adobe Illustrator 17.0.0, SVG Export Plug-In  --><svg version="1.1"	 xmlns="http://www.w3.org/2000/svg" xmlns:xlink="http://www.w3.org/1999/xlink" xmlns:a="http://ns.adobe.com/AdobeSVGViewerExtensions/3.0/"	 x="0px" y="0px" width="156.953px" height="156.954px" viewBox="0 0 156.953 156.954" enable-background="new 0 0 156.953 156.954"	 xml:space="preserve"><defs></defs><path fill="#436456" d="M78.459,156.949c-22.152,0-44.303,0.011-66.455-0.006c-8.234-0.006-11.988-3.672-11.991-11.773	C-0.004,100.7-0.004,56.231,0.011,11.761C0.015,3.886,3.789,0.021,11.541,0.017c44.636-0.022,89.273-0.023,133.909,0.002	c7.551,0.004,11.48,3.858,11.484,11.283c0.026,44.803,0.027,89.605-0.001,134.408c-0.004,7.403-3.951,11.221-11.52,11.229	C123.094,156.966,100.776,156.949,78.459,156.949z"/></svg>