<!-- Generator: Adobe Illustrator 17.0.0, SVG Export Plug-In  --><svg version="1.1"	 xmlns="http://www.w3.org/2000/svg" xmlns:xlink="http://www.w3.org/1999/xlink" xmlns:a="http://ns.adobe.com/AdobeSVGViewerExtensions/3.0/"	 x="0px" y="0px" width="780.902px" height="454.93px" viewBox="0 0 780.902 454.93" enable-background="new 0 0 780.902 454.93"	 xml:space="preserve"><defs></defs><path fill="#E6E6E6" d="M0,39.995c2.962-5.368,7.441-7.099,13.578-7.085c72.625,0.162,145.25,0.104,217.875,0.105	c10.349,0,13.497,3.101,13.497,13.295c0.002,72.791,0.002,145.584,0,218.375c0,10.155-3.167,13.261-13.512,13.261	c-72.625,0.001-145.251-0.058-217.876,0.106C7.423,278.066,2.943,276.357,0,270.965C0,193.976,0,116.985,0,39.995z"/><path fill="#111220" d="M780.902,411.948c-2.93,5.421-7.432,7.099-13.563,7.085c-72.791-0.162-145.582-0.104-218.372-0.105	c-9.64-0.001-13.013-3.302-13.014-12.763c-0.004-73.124-0.004-146.249,0-219.372c0-9.499,3.351-12.794,12.995-12.795	c72.79-0.003,145.581,0.056,218.372-0.105c6.133-0.013,10.619,1.713,13.582,7.084C780.902,257.968,780.902,334.958,780.902,411.948z	"/><path fill="#C2CAD3" d="M595.925,0c5.318,2.976,7.13,7.377,7.099,13.553c-0.222,43.633-0.114,87.269-0.121,130.903	c-0.001,8.912-3.515,12.501-12.264,12.502c-44.134,0.009-88.267,0.009-132.402,0c-8.757-0.002-12.27-3.585-12.272-12.498	c-0.007-43.635,0.1-87.27-0.119-130.903C445.815,7.388,447.62,2.976,452.943,0C500.604,0,548.264,0,595.925,0z"/><path fill="#E9C56A" d="M425.927,199.409c0,22.151,0.01,44.303-0.005,66.455c-0.006,8.453-3.662,12.077-12.186,12.079	c-44.47,0.009-88.94,0.009-133.41,0c-8.839-0.001-12.337-3.526-12.339-12.431c-0.008-44.47-0.009-88.94,0.001-133.41	c0.003-8.451,3.673-12.092,12.188-12.094c44.47-0.01,88.94-0.01,133.41-0.001c8.836,0.002,12.333,3.542,12.337,12.447	C425.934,154.773,425.927,177.091,425.927,199.409z"/><path fill="#436456" d="M257.45,454.925c-22.152,0-44.303,0.011-66.455-0.006c-8.234-0.006-11.988-3.672-11.991-11.773	c-0.017-44.47-0.016-88.939-0.001-133.409c0.003-7.875,3.778-11.74,11.529-11.744c44.636-0.022,89.273-0.023,133.909,0.002	c7.551,0.004,11.48,3.858,11.484,11.283c0.026,44.803,0.027,89.605-0.001,134.408c-0.004,7.403-3.951,11.221-11.52,11.229	C302.086,454.942,279.768,454.925,257.45,454.925z"/><path fill="#5A9541" d="M514.917,376.968c0,21.985,0.011,43.97-0.006,65.955c-0.006,8.224-3.687,11.991-11.767,11.994	c-44.47,0.016-88.939,0.016-133.408,0c-7.89-0.003-11.747-3.759-11.751-11.51c-0.023-44.636-0.022-89.271-0.001-133.908	c0.004-7.742,3.866-11.507,11.764-11.51c44.47-0.017,88.939-0.018,133.408,0.001c8.076,0.004,11.749,3.788,11.755,12.023	C514.927,332.331,514.917,354.649,514.917,376.968z"/><path fill="#5A9541" d="M301.938,101.968c-7.656,0-15.311,0.051-22.966-0.015c-6.857-0.06-10.93-3.998-10.962-10.764	c-0.074-15.477-0.071-30.955-0.001-46.432c0.029-6.52,4.069-10.673,10.513-10.71c15.643-0.091,31.288-0.097,46.931,0.003	c6.429,0.041,10.436,4.223,10.464,10.759c0.065,15.477,0.071,30.955-0.002,46.432c-0.032,6.759-4.1,10.656-11.011,10.712	C317.249,102.017,309.593,101.968,301.938,101.968z"/><path fill="#EE3924" d="M355.974,67.52c0-7.322-0.028-14.645,0.008-21.967c0.038-7.565,3.828-11.499,11.232-11.523	c15.145-0.05,30.289-0.051,45.434,0c7.435,0.025,11.253,3.941,11.271,11.481c0.035,14.978,0.035,29.957,0,44.935	c-0.018,7.743-3.858,11.501-11.727,11.515c-14.812,0.027-29.623,0.026-44.435,0.001c-8.083-0.014-11.752-3.763-11.778-11.974	C355.955,82.499,355.974,75.01,355.974,67.52z"/><path fill="#EE3924" d="M692.893,123.049c0,7.655,0.053,15.311-0.016,22.966c-0.06,6.839-4.022,10.894-10.8,10.924	c-15.477,0.068-30.955,0.071-46.432-0.003c-6.552-0.031-10.639-4.038-10.675-10.536c-0.088-15.644-0.088-31.288,0-46.931	c0.035-6.195,4.135-10.383,10.288-10.424c15.809-0.105,31.62-0.115,47.429,0.006c6.116,0.047,10.106,4.297,10.182,10.532	C692.964,107.405,692.892,115.228,692.893,123.049z"/><path fill="#EE3924" d="M446.964,243.63c-0.001-7.489-0.044-14.978,0.011-22.467c0.053-7.159,3.96-11.127,11.095-11.153	c15.311-0.056,30.622-0.064,45.933,0.005c6.805,0.031,10.866,4.083,10.894,10.843c0.062,15.477,0.07,30.955-0.006,46.432	c-0.032,6.528-4.073,10.595-10.581,10.628c-15.644,0.08-31.287,0.087-46.931-0.005c-6.219-0.037-10.287-4.117-10.383-10.319	C446.874,259.608,446.966,251.619,446.964,243.63z"/><path fill="#5A9541" d="M156.962,331.941c-0.001,7.488,0.028,14.978-0.008,22.467c-0.037,7.562-3.827,11.49-11.226,11.513	c-15.144,0.047-30.289,0.046-45.433,0.001c-7.42-0.022-11.256-3.932-11.276-11.464c-0.038-14.978-0.036-29.956-0.001-44.935	c0.018-7.75,3.857-11.518,11.724-11.534c14.812-0.029,29.624-0.03,44.436,0c8.091,0.017,11.757,3.773,11.78,11.984	C156.978,317.296,156.962,324.618,156.962,331.941z"/></svg>