<!-- Generator: Adobe Illustrator 17.0.0, SVG Export Plug-In  --><svg version="1.1"	 xmlns="http://www.w3.org/2000/svg" xmlns:xlink="http://www.w3.org/1999/xlink" xmlns:a="http://ns.adobe.com/AdobeSVGViewerExtensions/3.0/"	 x="0px" y="0px" width="68.012px" height="68.01px" viewBox="0 0 68.012 68.01" enable-background="new 0 0 68.012 68.01"	 xml:space="preserve"><defs></defs><path fill="#5A9541" d="M33.983,67.991c-7.656,0-15.311,0.051-22.966-0.015c-6.857-0.06-10.93-3.998-10.962-10.764	C-0.019,41.735-0.017,26.257,0.054,10.78C0.082,4.26,4.123,0.107,10.567,0.07C26.21-0.021,41.854-0.027,57.498,0.073	c6.429,0.041,10.436,4.223,10.464,10.759c0.065,15.477,0.071,30.955-0.002,46.432c-0.032,6.759-4.1,10.656-11.011,10.712	C49.294,68.04,41.638,67.991,33.983,67.991z"/></svg>