<!-- Generator: Adobe Illustrator 17.0.0, SVG Export Plug-In  --><svg version="1.1"	 xmlns="http://www.w3.org/2000/svg" xmlns:xlink="http://www.w3.org/1999/xlink" xmlns:a="http://ns.adobe.com/AdobeSVGViewerExtensions/3.0/"	 x="0px" y="0px" width="68.014px" height="68.028px" viewBox="0 0 68.014 68.028" enable-background="new 0 0 68.014 68.028"	 xml:space="preserve"><defs></defs><path fill="#EE3924" d="M67.989,34.086c0,7.655,0.053,15.311-0.016,22.966c-0.06,6.839-4.022,10.894-10.8,10.924	c-15.477,0.068-30.955,0.071-46.432-0.003C4.189,67.942,0.102,63.935,0.066,57.437c-0.088-15.644-0.088-31.288,0-46.931	C0.101,4.311,4.201,0.123,10.354,0.082c15.809-0.105,31.62-0.115,47.429,0.006c6.116,0.047,10.106,4.297,10.182,10.532	C68.06,18.442,67.988,26.265,67.989,34.086z"/></svg>