<!-- Generator: Adobe Illustrator 17.0.0, SVG Export Plug-In  --><svg version="1.1"	 xmlns="http://www.w3.org/2000/svg" xmlns:xlink="http://www.w3.org/1999/xlink" xmlns:a="http://ns.adobe.com/AdobeSVGViewerExtensions/3.0/"	 x="0px" y="0px" width="67.981px" height="67.989px" viewBox="0 0 67.981 67.989" enable-background="new 0 0 67.981 67.989"	 xml:space="preserve"><defs></defs><path fill="#5A9541" d="M67.971,33.974c-0.001,7.488,0.028,14.978-0.008,22.467c-0.037,7.562-3.827,11.49-11.226,11.513	C41.593,68.001,26.448,68,11.304,67.955c-7.42-0.022-11.256-3.932-11.276-11.464C-0.01,41.513-0.008,26.535,0.027,11.556	C0.045,3.806,3.884,0.038,11.751,0.022c14.812-0.029,29.624-0.03,44.436,0c8.091,0.017,11.757,3.773,11.78,11.984	C67.987,19.329,67.971,26.651,67.971,33.974z"/></svg>