<!-- Generator: Adobe Illustrator 17.0.0, SVG Export Plug-In  --><svg version="1.1"	 xmlns="http://www.w3.org/2000/svg" xmlns:xlink="http://www.w3.org/1999/xlink" xmlns:a="http://ns.adobe.com/AdobeSVGViewerExtensions/3.0/"	 x="0px" y="0px" width="68.013px" height="68.014px" viewBox="0 0 68.013 68.014" enable-background="new 0 0 68.013 68.014"	 xml:space="preserve"><defs></defs><path fill="#EE3924" d="M0.031,33.664C0.03,26.175-0.013,18.686,0.042,11.197C0.095,4.038,4.002,0.07,11.137,0.044	C26.448-0.012,41.759-0.02,57.07,0.049c6.805,0.031,10.866,4.083,10.894,10.843c0.062,15.477,0.07,30.955-0.006,46.432	c-0.032,6.528-4.073,10.595-10.581,10.628c-15.644,0.08-31.287,0.087-46.931-0.005C4.227,67.91,0.159,63.83,0.063,57.628	C-0.059,49.642,0.033,41.653,0.031,33.664z"/></svg>