<!-- Generator: Adobe Illustrator 17.0.0, SVG Export Plug-In  --><svg version="1.1"	 xmlns="http://www.w3.org/2000/svg" xmlns:xlink="http://www.w3.org/1999/xlink" xmlns:a="http://ns.adobe.com/AdobeSVGViewerExtensions/3.0/"	 x="0px" y="0px" width="88.984px" height="133.322px" viewBox="0 0 88.984 133.322" enable-background="new 0 0 88.984 133.322"	 xml:space="preserve"><defs></defs><path fill="#5A9341" d="M40.665,112.463c0,0,4.637-21.943,0.195-36.012h8.146c0,0-3.704,25.177,3.702,41.961L40.665,112.463z"/><path fill="#EE3A24" d="M41.592,36.469c0,1.356-1.099,2.457-2.455,2.457H23.073c-1.355,0-2.454-1.101-2.454-2.457V20.407	c0-1.354,1.1-2.455,2.454-2.455h16.064c1.356,0,2.455,1.101,2.455,2.455L41.592,36.469L41.592,36.469z"/><path fill="#5A9341" d="M88.984,48.07c0,1.356-1.1,2.458-2.457,2.458H70.466c-1.354,0-2.454-1.102-2.454-2.458V32.009	c0-1.355,1.1-2.456,2.454-2.456h16.061c1.357,0,2.457,1.101,2.457,2.456V48.07z"/><path fill="#5A9341" d="M46.757,57.422c0,1.154-0.936,2.092-2.092,2.092H30.983c-1.154,0-2.092-0.938-2.092-2.092V43.739	c0-1.154,0.938-2.092,2.092-2.092h13.682c1.155,0,2.092,0.938,2.092,2.092V57.422z"/><path fill="#5A9341" d="M63.91,32.491c0,1.154-0.939,2.092-2.094,2.092H48.134c-1.153,0-2.091-0.938-2.091-2.092V18.81	c0-1.154,0.938-2.092,2.091-2.092h13.682c1.155,0,2.094,0.938,2.094,2.092V32.491z"/><path fill="#5A9341" d="M70.641,68.313c0,1.015-0.821,1.836-1.836,1.836H56.808c-1.011,0-1.832-0.821-1.832-1.836V56.317	c0-1.012,0.821-1.834,1.832-1.834h11.997c1.015,0,1.836,0.822,1.836,1.834V68.313z"/><path fill="#5A9341" d="M15.666,30.549c0,1.013-0.82,1.834-1.834,1.834H1.833C0.821,32.383,0,31.561,0,30.549V18.552	c0-1.012,0.821-1.834,1.833-1.834h11.998c1.014,0,1.834,0.822,1.834,1.834L15.666,30.549L15.666,30.549z"/><path fill="#5A9341" d="M82.064,23.951c0,1.013-0.823,1.834-1.836,1.834H68.231c-1.012,0-1.834-0.821-1.834-1.834V11.953	c0-1.013,0.822-1.834,1.834-1.834h11.997c1.013,0,1.836,0.822,1.836,1.834V23.951z"/><path fill="#5A9341" d="M47.763,12.364c0,0.905-0.734,1.64-1.638,1.64H35.398c-0.904,0-1.64-0.735-1.64-1.64V1.639	c0-0.905,0.735-1.639,1.64-1.639h10.727c0.903,0,1.638,0.734,1.638,1.639V12.364z"/><path fill="#5A9341" d="M63.91,48.941c0,0.906-0.734,1.64-1.642,1.64H51.543c-0.904,0-1.64-0.734-1.64-1.64V38.216	c0-0.906,0.735-1.64,1.64-1.64h10.725c0.907,0,1.642,0.734,1.642,1.64V48.941z"/><path fill="#5A9341" d="M29.092,13.705c0,0.775-0.629,1.404-1.404,1.404h-9.184c-0.774,0-1.403-0.629-1.403-1.404V4.521	c0-0.775,0.629-1.404,1.403-1.404h9.184c0.775,0,1.404,0.629,1.404,1.404V13.705z"/><path fill="#5A9341" d="M19.457,46.239c0,0.776-0.628,1.404-1.403,1.404H8.87c-0.774,0-1.404-0.628-1.404-1.404v-9.181	c0-0.776,0.63-1.405,1.404-1.405h9.184c0.775,0,1.403,0.629,1.403,1.405V46.239z"/><path fill="#5A9341" d="M34.389,72.287c0,0.728-0.593,1.322-1.322,1.322h-8.649c-0.728,0-1.32-0.593-1.32-1.322v-8.649	c0-0.731,0.592-1.322,1.32-1.322h8.649c0.729,0,1.322,0.591,1.322,1.322V72.287z"/><path fill="#5A9341" d="M50.671,72.287c0,0.728-0.593,1.322-1.323,1.322h-8.647c-0.729,0-1.322-0.593-1.322-1.322v-8.649	c0-0.731,0.593-1.322,1.322-1.322h8.647c0.73,0,1.323,0.591,1.323,1.322V72.287z"/><path fill="#5A9341" d="M21.574,60.883c0,0.654-0.53,1.185-1.184,1.185h-7.751c-0.653,0-1.185-0.53-1.185-1.185v-7.749	c0-0.654,0.531-1.185,1.185-1.185h7.751c0.653,0,1.184,0.531,1.184,1.185V60.883z"/><path fill="#5A9341" d="M79.29,61.451c0,0.326-0.265,0.591-0.592,0.591h-3.876c-0.327,0-0.592-0.265-0.592-0.591v-3.877	c0-0.326,0.265-0.591,0.592-0.591h3.876c0.327,0,0.592,0.265,0.592,0.591V61.451z"/><path fill="#5A9341" d="M26.633,48.047c0,0.327-0.266,0.591-0.593,0.591h-3.875c-0.327,0-0.592-0.265-0.592-0.591v-3.876	c0-0.327,0.265-0.592,0.592-0.592h3.875c0.327,0,0.593,0.265,0.593,0.592V48.047z"/><path fill="#5A9341" d="M62.809,12.267c0,0.669-0.543,1.213-1.215,1.213h-7.935c-0.671,0-1.214-0.543-1.214-1.213V4.331	c0-0.67,0.543-1.213,1.214-1.213h7.935c0.672,0,1.215,0.543,1.215,1.213V12.267z"/><g>	<g>		<path fill="#5A9341" d="M42.415,115.963l1.642,3.277c-1.189,1.131-2.388,2.537-3.457,4.236l-0.647-0.63			c0,0-3.998-0.422-6.464,3.379c0,0,0.011,0.166,0.203,0.034c0.189-0.137,2.873-2.294,5.637-1.807			c0.255,0.042,0.443,0.061,0.638,0.084c-1.279,2.334-2.274,5.187-2.626,8.634c0,0,0.271,0.441,0.596-0.18			c0.208-0.395,1.954-4.291,5.227-7.756c0.545,3.427-1.627,6.85-1.776,7.112c-0.151,0.276,0.081,0.268,0.081,0.268			c4.767-3.85,3.639-9.181,3.639-9.181l-0.013-0.014c1.562-1.288,3.37-2.394,5.441-3.04c0.543-0.17,1.017-0.335,1.448-0.488			c2.28,1.661,3.393,4.501,3.496,4.724c0.118,0.268,0.24,0.096,0.24,0.096c-0.111-2.466-1.047-4.229-2.062-5.472h0.266			c1.867,1.041,3.472,2.423,4.815,3.871c0.919,3.611-1.527,7.416-1.683,7.683c-0.146,0.282,0.081,0.269,0.081,0.269			c2.215-1.787,3.136-3.886,3.508-5.63c1.93,2.615,2.982,4.938,3.129,5.236c0.334,0.62,0.6,0.181,0.6,0.181			c-0.096-0.934-0.247-1.828-0.432-2.674c1.056,0.461,2.741,0.859,4.758,0.016c0,0,0.066-0.115-0.127-0.112			c-0.189,0-3.001,0.219-4.645-1.378c-0.181-0.182-0.329-0.311-0.469-0.422c-1.398-4.575-3.969-7.747-6.355-9.855l-6.187-2.962			l-10.125-1L42.415,115.963z"/>	</g></g></svg>