<!-- Generator: Adobe Illustrator 17.0.0, SVG Export Plug-In  --><svg version="1.1"	 xmlns="http://www.w3.org/2000/svg" xmlns:xlink="http://www.w3.org/1999/xlink" xmlns:a="http://ns.adobe.com/AdobeSVGViewerExtensions/3.0/"	 x="0px" y="0px" width="157.95px" height="157.949px" viewBox="0 0 157.95 157.949" enable-background="new 0 0 157.95 157.949"	 xml:space="preserve"><defs></defs><path fill="#E9C56A" d="M157.946,79.409c0,22.151,0.01,44.303-0.005,66.455c-0.006,8.453-3.662,12.077-12.186,12.079	c-44.47,0.009-88.94,0.009-133.41,0c-8.839-0.001-12.337-3.526-12.339-12.431c-0.008-44.47-0.009-88.94,0.001-133.41	C0.01,3.651,3.68,0.01,12.195,0.008c44.47-0.01,88.94-0.01,133.41-0.001c8.836,0.002,12.333,3.542,12.337,12.447	C157.953,34.773,157.946,57.091,157.946,79.409z"/></svg>