<!-- Generator: Adobe Illustrator 17.0.0, SVG Export Plug-In  --><svg version="1.1"	 xmlns="http://www.w3.org/2000/svg" xmlns:xlink="http://www.w3.org/1999/xlink" xmlns:a="http://ns.adobe.com/AdobeSVGViewerExtensions/3.0/"	 x="0px" y="0px" width="67.982px" height="67.989px" viewBox="0 0 67.982 67.989" enable-background="new 0 0 67.982 67.989"	 xml:space="preserve"><defs></defs><path fill="#EE3924" d="M0.01,33.528c0-7.322-0.028-14.645,0.008-21.967C0.056,3.996,3.846,0.062,11.25,0.038	c15.145-0.05,30.289-0.051,45.434,0c7.435,0.025,11.253,3.941,11.271,11.481c0.035,14.978,0.035,29.957,0,44.935	c-0.018,7.743-3.858,11.501-11.727,11.515c-14.812,0.027-29.623,0.026-44.435,0.001C3.71,67.956,0.041,64.207,0.015,55.996	C-0.009,48.507,0.01,41.018,0.01,33.528z"/></svg>