<?xml version="1.0" encoding="utf-8"?>
<!-- Generator: Adobe Illustrator 17.0.0, SVG Export Plug-In . SVG Version: 6.00 Build 0)  -->
<!DOCTYPE svg PUBLIC "-//W3C//DTD SVG 1.1//EN" "http://www.w3.org/Graphics/SVG/1.1/DTD/svg11.dtd">
<svg version="1.1" id="Layer_1" xmlns="http://www.w3.org/2000/svg" xmlns:xlink="http://www.w3.org/1999/xlink" x="0px" y="0px"
	 width="144.984px" height="155.25px" viewBox="-20 0 144.984 155.25" enable-background="new -20 0 144.984 155.25"
	 xml:space="preserve">
<path fill="#5D5D5D" d="M-20,128.586c0,0,12.406-11.818,24.224-8.058c0,0-9.132,26.456-8.058,34.178c0,0,10.206-21.286,20.95-31.492
	c0,0,5.372,4.835-5.909,26.859c0,0,17.19-6.983,14.504-32.768c0,0,12.355-12.355,26.322-14.504c0,0,10.206,6.983,14.504,17.727
	c0,0,0.537-13.967-6.983-20.413c0,0,16.115,8.058,18.264,14.504c0,0,6.446,7.52-4.835,30.619c0,0,11.281-8.595,13.429-20.95
	c0,0,9.132,11.482,14.504,20.95c0,0,2.149-3.76,0-10.206c0,0,13.327,1.612,18.481,1.074c0,0-17.407-5.036-21.167-8.695
	s-6.446-34.279-43.511-45.559c0,0-16.652-34.782-15.578-81.046H11.208c0,0-1.612,40.31-13.429,73.033
	c0,0,18.264,19.831,22.561,25.74c0,0-9.132,12.892-11.281,17.19C9.059,116.768-3.936,106.025-20,128.586z"/>
<linearGradient id="SVGID_1_" gradientUnits="userSpaceOnUse" x1="49.6986" y1="131.9165" x2="49.6986" y2="-168.9393">
	<stop  offset="0" style="stop-color:#FFFFFF"/>
	<stop  offset="1" style="stop-color:#000000"/>
</linearGradient>
<path fill="url(#SVGID_1_)" d="M-20,127.781c0,0,12.406-11.818,24.224-8.058c0,0-9.132,26.456-8.058,34.178
	c0,0,10.206-21.286,20.95-31.492c0,0,5.372,4.835-5.909,26.859c0,0,17.19-6.983,14.504-32.768c0,0,12.355-12.355,26.322-14.504
	c0,0,10.206,6.983,14.504,17.727c0,0,0.537-13.967-6.983-20.413c0,0,16.115,8.058,18.264,14.504c0,0,6.446,7.52-4.835,30.619
	c0,0,11.281-8.595,13.429-20.95c0,0,9.132,11.482,14.504,20.95c0,0,2.149-3.76,0-10.206c0,0,13.327,1.612,18.481,1.074
	c0,0-17.407-5.036-21.167-8.695c-3.76-3.66-6.446-34.279-43.511-45.559c0,0-16.652-34.782-15.578-81.046H11.208
	c0,0-1.612,40.31-13.429,73.033c0,0,18.264,19.831,22.561,25.74c0,0-9.132,12.892-11.281,17.19
	C9.059,115.963-3.936,105.219-20,127.781z"/>
</svg>
