<!-- Generator: Adobe Illustrator 17.0.0, SVG Export Plug-In  --><svg version="1.1"	 xmlns="http://www.w3.org/2000/svg" xmlns:xlink="http://www.w3.org/1999/xlink" xmlns:a="http://ns.adobe.com/AdobeSVGViewerExtensions/3.0/"	 x="0px" y="0px" width="78.704px" height="142.724px" viewBox="0 0 78.704 142.724" enable-background="new 0 0 78.704 142.724"	 xml:space="preserve"><defs></defs><linearGradient id="SVGID_1_" gradientUnits="userSpaceOnUse" x1="267.3519" y1="-715.7389" x2="267.3519" y2="-410.9623" gradientTransform="matrix(1 0 0 -1 -228 -573.9761)">	<stop  offset="0" style="stop-color:#FFFFFF"/>	<stop  offset="1" style="stop-color:#000000"/></linearGradient><path fill="url(#SVGID_1_)" d="M2.982,142.724c1.393-7.078,2.785-14.157,4.178-21.235c0.362,0.095,0.725,0.19,1.087,0.286	c-0.607-1.024-1.522-2-1.691-3.092c-0.087-0.558,1.412-2.018,1.768-1.89c4.54,1.637,4.166-3.075,6.429-4.427	c-0.478-0.416-0.677-0.72-0.947-0.807c-11.441-3.68-13.799-6.908-13.802-19.047C-0.003,63.37,0.002,34.229,0.002,5.087	c0-1.624,0-3.248,0-5.087C16.26,0,32.023,0,48.65,0c0,1.904,0,3.808,0,5.711c0,28.475,0.074,56.951-0.075,85.425	c-0.024,4.57,1.92,7.58,4.726,10.956c4.724,5.685,9.298,11.741,12.552,18.324c2.483,5.023,5.386,8.129,10.787,8.992	c0.735,0.117,1.448,0.38,2.064,1.194c-2.943,0-5.886,0-9.124,0c0.103,1.793,0.21,3.664,0.397,6.953	c-3.24-5.274-5.78-9.413-8.438-13.738c-2.772,4.366-5.354,8.435-7.936,12.501c-0.195-0.139-0.391-0.279-0.586-0.42	c1.163-4.918,2.829-9.781,3.346-14.766c0.508-4.892-4.812-9.757-10.179-10.107c0.713,2.671,1.411,5.285,2.109,7.9	c-0.28,0.145-0.56,0.289-0.841,0.435c-0.735-1.097-1.487-2.184-2.205-3.291c-3.774-5.828-5.887-6.699-12.411-4.417	c-2.629,0.919-5.353,2.127-7.42,3.914c-1.603,1.386-3.097,3.843-3.173,5.877c-0.279,7.433-3.039,13.461-8.724,18.769	c1.5-5.653,2.882-10.858,4.263-16.062c-0.569-0.235-1.139-0.472-1.708-0.708c-4.854,5.87-9.655,11.776-12.093,19.279	C3.649,142.724,3.315,142.724,2.982,142.724z"/></svg>