<!-- Generator: Adobe Illustrator 17.0.0, SVG Export Plug-In  --><svg version="1.1"	 xmlns="http://www.w3.org/2000/svg" xmlns:xlink="http://www.w3.org/1999/xlink" xmlns:a="http://ns.adobe.com/AdobeSVGViewerExtensions/3.0/"	 x="0px" y="0px" width="88.461px" height="142.833px" viewBox="0 0 88.461 142.833" enable-background="new 0 0 88.461 142.833"	 xml:space="preserve"><defs></defs><g>	<linearGradient id="SVGID_1_" gradientUnits="userSpaceOnUse" x1="33.1459" y1="143.7619" x2="33.1459" y2="-148.2997">		<stop  offset="0" style="stop-color:#FFFFFF"/>		<stop  offset="1" style="stop-color:#000000"/>	</linearGradient>	<path fill="url(#SVGID_1_)" d="M18.023,90.445c0,0,11.646-55.111,0.49-90.445h20.459c0,0-9.303,63.233,9.298,105.386L18.023,90.445		z"/>	<g>		<g>			<linearGradient id="SVGID_2_" gradientUnits="userSpaceOnUse" x1="44.2303" y1="143.7619" x2="44.2303" y2="-148.2997">				<stop  offset="0" style="stop-color:#FFFFFF"/>				<stop  offset="1" style="stop-color:#000000"/>			</linearGradient>			<path fill="url(#SVGID_2_)" d="M22.418,99.236l4.124,8.23c-2.986,2.841-5.998,6.372-8.682,10.639l-1.625-1.582				c0,0-10.041-1.06-16.235,8.486c0,0,0.028,0.417,0.51,0.085c0.475-0.344,7.216-5.761,14.157-4.538				c0.64,0.106,1.113,0.153,1.602,0.211c-3.212,5.862-5.711,13.027-6.595,21.685c0,0,0.681,1.108,1.497-0.452				c0.522-0.992,4.908-10.777,13.128-19.479c1.369,8.607-4.086,17.204-4.46,17.862c-0.379,0.693,0.203,0.673,0.203,0.673				c11.972-9.669,9.139-23.058,9.139-23.058l-0.033-0.035c3.923-3.235,8.464-6.013,13.665-7.635				c1.364-0.427,2.554-0.841,3.637-1.226c5.726,4.172,8.522,11.304,8.78,11.864c0.296,0.673,0.603,0.241,0.603,0.241				c-0.279-6.193-2.63-10.621-5.179-13.743h0.668c4.689,2.615,8.72,6.085,12.093,9.722c2.308,9.069-3.835,18.626-4.227,19.296				c-0.367,0.708,0.203,0.676,0.203,0.676c5.563-4.488,7.876-9.76,8.81-14.14c4.847,6.568,7.489,12.402,7.859,13.15				c0.839,1.557,1.507,0.455,1.507,0.455c-0.241-2.346-0.62-4.591-1.085-6.716c2.652,1.158,6.884,2.157,11.95,0.04				c0,0,0.166-0.289-0.319-0.281c-0.475,0-7.537,0.55-11.666-3.461c-0.455-0.457-0.826-0.781-1.178-1.06				c-3.511-11.49-9.968-19.457-15.961-24.751l-15.539-7.439l-25.429-2.512L22.418,99.236z"/>		</g>	</g></g></svg>