<?xml version="1.0" encoding="utf-8"?>
<!-- Generator: Adobe Illustrator 17.0.0, SVG Export Plug-In . SVG Version: 6.00 Build 0)  -->
<!DOCTYPE svg PUBLIC "-//W3C//DTD SVG 1.1//EN" "http://www.w3.org/Graphics/SVG/1.1/DTD/svg11.dtd">
<svg version="1.1" id="Isolation_Mode" xmlns="http://www.w3.org/2000/svg" xmlns:xlink="http://www.w3.org/1999/xlink" x="0px"
	 y="0px" width="797.96px" height="610.924px" viewBox="0 0 797.96 610.924" enable-background="new 0 0 797.96 610.924"
	 xml:space="preserve">
<g>
	<g>
		<g>
			<defs>
				<polygon id="SVGID_1_" points="47,23 48,23 47,24 				"/>
			</defs>
			<defs>
				<polygon id="SVGID_2_" points="45,21 44,21 45,20 				"/>
			</defs>
			<clipPath id="SVGID_3_">
				<use xlink:href="#SVGID_1_"  overflow="visible"/>
			</clipPath>
			<clipPath id="SVGID_4_" clip-path="url(#SVGID_3_)">
				<use xlink:href="#SVGID_2_"  overflow="visible"/>
			</clipPath>
			<g clip-path="url(#SVGID_4_)">
				<g>
					<defs>
						<polygon id="SVGID_5_" points="55,31 56,31 55,32 						"/>
					</defs>
					<defs>
						<polygon id="SVGID_6_" points="53,29 52,29 53,28 						"/>
					</defs>
					<clipPath id="SVGID_7_">
						<use xlink:href="#SVGID_5_"  overflow="visible"/>
					</clipPath>
					<clipPath id="SVGID_8_" clip-path="url(#SVGID_7_)">
						<use xlink:href="#SVGID_6_"  overflow="visible"/>
					</clipPath>
				</g>
			</g>
		</g>
		<g>
			<path fill="#E6E6E6" d="M9.891,39.995c2.962-5.368,7.441-7.099,13.578-7.085c72.625,0.162,145.25,0.104,217.875,0.105
				c10.349,0,13.497,3.101,13.497,13.295c0.002,72.791,0.002,145.584,0,218.375c0,10.155-3.167,13.261-13.512,13.261
				c-72.625,0.001-145.251-0.058-217.876,0.106c-6.139,0.014-10.619-1.695-13.562-7.087C9.891,193.976,9.891,116.985,9.891,39.995z"
				/>
			<path fill="#111220" d="M790.793,411.948c-2.93,5.421-7.432,7.099-13.563,7.085c-72.791-0.162-145.582-0.104-218.372-0.105
				c-9.64-0.001-13.013-3.302-13.014-12.763c-0.004-73.124-0.004-146.249,0-219.372c0-9.499,3.351-12.794,12.995-12.795
				c72.79-0.003,145.581,0.056,218.372-0.105c6.133-0.013,10.619,1.713,13.582,7.084
				C790.793,257.968,790.793,334.958,790.793,411.948z"/>
			<path fill="#C2CAD3" d="M605.816,0c5.318,2.976,7.13,7.377,7.099,13.553c-0.222,43.633-0.114,87.269-0.121,130.903
				c-0.001,8.912-3.515,12.501-12.264,12.502c-44.134,0.009-88.267,0.009-132.402,0c-8.757-0.002-12.27-3.585-12.272-12.498
				c-0.007-43.635,0.1-87.27-0.119-130.903C455.706,7.388,457.511,2.976,462.834,0C510.495,0,558.155,0,605.816,0z"/>
			<path fill="#E9C56A" d="M435.818,199.409c0,22.151,0.01,44.303-0.005,66.455c-0.006,8.453-3.662,12.077-12.186,12.079
				c-44.47,0.009-88.94,0.009-133.41,0c-8.839-0.001-12.337-3.526-12.339-12.431c-0.008-44.47-0.009-88.94,0.001-133.41
				c0.003-8.451,3.673-12.092,12.188-12.094c44.47-0.01,88.94-0.01,133.41-0.001c8.836,0.002,12.333,3.542,12.337,12.447
				C435.825,154.773,435.818,177.091,435.818,199.409z"/>
			<path fill="#436456" d="M267.341,454.925c-22.152,0-44.303,0.011-66.455-0.006c-8.234-0.006-11.988-3.672-11.991-11.773
				c-0.017-44.47-0.016-88.939-0.001-133.409c0.003-7.875,3.778-11.74,11.529-11.744c44.636-0.022,89.273-0.023,133.909,0.002
				c7.551,0.004,11.48,3.858,11.484,11.283c0.026,44.803,0.027,89.605-0.001,134.408c-0.004,7.403-3.951,11.221-11.52,11.229
				C311.977,454.942,289.659,454.925,267.341,454.925z"/>
			<path fill="#5A9541" d="M524.808,376.968c0,21.985,0.011,43.97-0.006,65.955c-0.006,8.224-3.687,11.991-11.767,11.994
				c-44.47,0.016-88.939,0.016-133.408,0c-7.89-0.003-11.747-3.759-11.751-11.51c-0.023-44.636-0.022-89.271-0.001-133.908
				c0.004-7.742,3.866-11.507,11.764-11.51c44.47-0.017,88.939-0.018,133.408,0.001c8.076,0.004,11.749,3.788,11.755,12.023
				C524.818,332.331,524.808,354.649,524.808,376.968z"/>
			<path fill="#5A9541" d="M311.829,101.968c-7.656,0-15.311,0.051-22.966-0.015c-6.857-0.06-10.93-3.998-10.962-10.764
				c-0.074-15.477-0.071-30.955-0.001-46.432c0.029-6.52,4.069-10.673,10.513-10.71c15.643-0.091,31.288-0.097,46.931,0.003
				c6.429,0.041,10.436,4.223,10.464,10.759c0.065,15.477,0.071,30.955-0.002,46.432c-0.032,6.759-4.1,10.656-11.011,10.712
				C327.14,102.017,319.484,101.968,311.829,101.968z"/>
			<path fill="#EE3924" d="M365.865,67.52c0-7.322-0.028-14.645,0.008-21.967c0.038-7.565,3.828-11.499,11.232-11.523
				c15.145-0.05,30.289-0.051,45.434,0c7.435,0.025,11.253,3.941,11.271,11.481c0.035,14.978,0.035,29.957,0,44.935
				c-0.018,7.743-3.858,11.501-11.727,11.515c-14.812,0.027-29.623,0.026-44.435,0.001c-8.083-0.014-11.752-3.763-11.778-11.974
				C365.846,82.499,365.865,75.01,365.865,67.52z"/>
			<path fill="#EE3924" d="M702.784,123.049c0,7.655,0.053,15.311-0.016,22.966c-0.06,6.839-4.022,10.894-10.8,10.924
				c-15.477,0.068-30.955,0.071-46.432-0.003c-6.552-0.031-10.639-4.038-10.675-10.536c-0.088-15.644-0.088-31.288,0-46.931
				c0.035-6.195,4.135-10.383,10.288-10.424c15.809-0.105,31.62-0.115,47.429,0.006c6.116,0.047,10.106,4.297,10.182,10.532
				C702.855,107.405,702.783,115.228,702.784,123.049z"/>
			<path fill="#EE3924" d="M456.855,243.63c-0.001-7.489-0.044-14.978,0.011-22.467c0.053-7.159,3.96-11.127,11.095-11.153
				c15.311-0.056,30.622-0.064,45.933,0.005c6.805,0.031,10.866,4.083,10.894,10.843c0.062,15.477,0.07,30.955-0.006,46.432
				c-0.032,6.528-4.073,10.595-10.581,10.628c-15.644,0.08-31.287,0.087-46.931-0.005c-6.219-0.037-10.287-4.117-10.383-10.319
				C456.765,259.608,456.857,251.619,456.855,243.63z"/>
			<path fill="#5A9541" d="M166.853,331.941c-0.001,7.488,0.028,14.978-0.008,22.467c-0.037,7.562-3.827,11.49-11.226,11.513
				c-15.144,0.047-30.289,0.046-45.433,0.001c-7.42-0.022-11.256-3.932-11.276-11.464c-0.038-14.978-0.036-29.956-0.001-44.935
				c0.018-7.75,3.857-11.518,11.724-11.534c14.812-0.029,29.624-0.03,44.436,0c8.091,0.017,11.757,3.773,11.78,11.984
				C166.869,317.296,166.853,324.618,166.853,331.941z"/>
			<linearGradient id="SVGID_9_" gradientUnits="userSpaceOnUse" x1="405.3313" y1="600.962" x2="405.3313" y2="353.7597">
				<stop  offset="0" style="stop-color:#FFFFFF"/>
				<stop  offset="1" style="stop-color:#000000"/>
			</linearGradient>
			<path fill="url(#SVGID_9_)" d="M390.483,550c0,0,11.434-54.108,0.481-88.8h20.087c0,0-9.134,62.083,9.129,103.469L390.483,550z"
				/>
			<g>
				<g>
					<linearGradient id="SVGID_10_" gradientUnits="userSpaceOnUse" x1="416.2141" y1="600.962" x2="416.2141" y2="353.7597">
						<stop  offset="0" style="stop-color:#FFFFFF"/>
						<stop  offset="1" style="stop-color:#000000"/>
					</linearGradient>
					<path fill="url(#SVGID_10_)" d="M394.798,558.631l4.049,8.081c-2.932,2.789-5.888,6.256-8.524,10.445l-1.595-1.553
						c0,0-9.858-1.041-15.939,8.332c0,0,0.027,0.409,0.501,0.084c0.466-0.338,7.084-5.657,13.9-4.456
						c0.629,0.104,1.092,0.15,1.573,0.207c-3.154,5.755-5.607,12.79-6.475,21.29c0,0,0.668,1.087,1.47-0.444
						c0.513-0.974,4.818-10.581,12.889-19.125c1.344,8.45-4.012,16.891-4.379,17.537c-0.372,0.681,0.2,0.661,0.2,0.661
						c11.755-9.494,8.973-22.639,8.973-22.639l-0.032-0.035c3.852-3.176,8.31-5.903,13.417-7.496
						c1.339-0.419,2.508-0.826,3.571-1.203c5.622,4.096,8.367,11.099,8.621,11.649c0.291,0.661,0.592,0.237,0.592,0.237
						c-0.274-6.081-2.582-10.428-5.085-13.493h0.656c4.604,2.567,8.561,5.975,11.873,9.545c2.266,8.904-3.765,18.287-4.15,18.945
						c-0.36,0.695,0.2,0.663,0.2,0.663c5.462-4.406,7.733-9.582,8.65-13.883c4.759,6.448,7.353,12.176,7.716,12.911
						c0.824,1.529,1.48,0.446,1.48,0.446c-0.237-2.303-0.609-4.508-1.065-6.594c2.604,1.137,6.759,2.118,11.732,0.039
						c0,0,0.163-0.284-0.313-0.276c-0.466,0-7.4,0.54-11.454-3.398c-0.446-0.449-0.811-0.767-1.156-1.041
						c-3.447-11.281-9.787-19.103-15.671-24.301l-15.256-7.304l-24.967-2.466L394.798,558.631z"/>
				</g>
			</g>
		</g>
	</g>
</g>
</svg>
