<?xml version="1.0" encoding="utf-8"?>
<!-- Generator: Adobe Illustrator 17.0.0, SVG Export Plug-In . SVG Version: 6.00 Build 0)  -->
<!DOCTYPE svg PUBLIC "-//W3C//DTD SVG 1.1//EN" "http://www.w3.org/Graphics/SVG/1.1/DTD/svg11.dtd">
<svg version="1.1" id="Layer_1" xmlns="http://www.w3.org/2000/svg" xmlns:xlink="http://www.w3.org/1999/xlink" x="0px" y="0px"
	 width="400px" height="161px" viewBox="0 0 400 161" enable-background="new 0 0 400 161" xml:space="preserve">
<g>
	<path fill="#4A494A" d="M214.231,149.94v-5.428h-0.885v-0.872h0.885v-0.299c0-0.885,0.195-1.692,0.729-2.2
		c0.43-0.417,1.003-0.585,1.536-0.585c0.403,0,0.755,0.091,0.977,0.182l-0.156,0.885c-0.17-0.078-0.404-0.143-0.729-0.143
		c-0.976,0-1.224,0.859-1.224,1.822v0.338h1.523v0.872h-1.523v5.428H214.231z"/>
	<path fill="#4A494A" d="M222.084,145.605c0-0.742-0.013-1.379-0.052-1.965h1.002l0.039,1.237h0.052
		c0.286-0.846,0.977-1.38,1.744-1.38c0.13,0,0.222,0.013,0.325,0.039v1.081c-0.117-0.026-0.234-0.039-0.39-0.039
		c-0.808,0-1.38,0.611-1.536,1.471c-0.026,0.156-0.052,0.338-0.052,0.534v3.358h-1.133V145.605z"/>
	<path fill="#4A494A" d="M235.78,148.222c0,0.651,0.013,1.224,0.052,1.718h-1.015l-0.065-1.028h-0.026
		c-0.299,0.508-0.963,1.171-2.082,1.171c-0.989,0-2.174-0.546-2.174-2.759v-3.684h1.145v3.488c0,1.198,0.364,2.004,1.405,2.004
		c0.769,0,1.302-0.534,1.51-1.041c0.065-0.169,0.105-0.377,0.105-0.586v-3.866h1.145V148.222z"/>
	<path fill="#4A494A" d="M243.126,141.87c0.013,0.391-0.274,0.703-0.729,0.703c-0.403,0-0.69-0.312-0.69-0.703
		c0-0.403,0.3-0.716,0.716-0.716C242.852,141.154,243.126,141.467,243.126,141.87z M241.851,149.94v-6.3h1.146v6.3H241.851z"/>
	<path fill="#4A494A" d="M250.444,141.831v1.809h1.64v0.872h-1.64v3.397c0,0.781,0.221,1.223,0.858,1.223
		c0.3,0,0.521-0.039,0.664-0.078l0.052,0.859c-0.221,0.091-0.572,0.156-1.015,0.156c-0.534,0-0.963-0.169-1.236-0.482
		c-0.326-0.338-0.442-0.898-0.442-1.64v-3.436h-0.977v-0.872h0.977v-1.51L250.444,141.831z"/>
	<path fill="#4A494A" d="M257.386,148.769c0.339,0.221,0.938,0.456,1.51,0.456c0.833,0,1.224-0.417,1.224-0.937
		c0-0.547-0.325-0.846-1.172-1.159c-1.132-0.403-1.666-1.028-1.666-1.783c0-1.015,0.82-1.848,2.174-1.848
		c0.638,0,1.197,0.182,1.549,0.391l-0.286,0.833c-0.247-0.156-0.703-0.365-1.288-0.365c-0.678,0-1.055,0.391-1.055,0.859
		c0,0.52,0.377,0.755,1.197,1.067c1.094,0.417,1.653,0.963,1.653,1.9c0,1.106-0.859,1.888-2.357,1.888
		c-0.689,0-1.327-0.169-1.77-0.43L257.386,148.769z"/>
	<path fill="#4A494A" d="M277.281,149.94l-0.091-0.794h-0.039c-0.352,0.495-1.028,0.937-1.927,0.937
		c-1.275,0-1.927-0.898-1.927-1.809c0-1.523,1.354-2.356,3.788-2.343v-0.13c0-0.52-0.143-1.457-1.432-1.457
		c-0.586,0-1.197,0.182-1.64,0.468l-0.261-0.755c0.521-0.338,1.275-0.559,2.069-0.559c1.927,0,2.396,1.314,2.396,2.577v2.356
		c0,0.546,0.025,1.08,0.104,1.51H277.281z M277.112,146.725c-1.25-0.026-2.669,0.195-2.669,1.419c0,0.742,0.495,1.094,1.081,1.094
		c0.819,0,1.34-0.521,1.523-1.055c0.039-0.117,0.065-0.247,0.065-0.364V146.725z"/>
	<path fill="#4A494A" d="M284.236,145.345c0-0.65-0.013-1.184-0.052-1.705h1.015l0.065,1.041h0.026
		c0.311-0.599,1.041-1.184,2.082-1.184c0.872,0,2.226,0.52,2.226,2.681v3.762h-1.146v-3.631c0-1.015-0.377-1.861-1.457-1.861
		c-0.756,0-1.341,0.534-1.536,1.171c-0.053,0.143-0.078,0.338-0.078,0.534v3.788h-1.146V145.345z"/>
	<path fill="#4A494A" d="M301.071,140.699v7.614c0,0.56,0.013,1.197,0.052,1.627h-1.027l-0.053-1.093h-0.025
		c-0.352,0.703-1.12,1.236-2.148,1.236c-1.522,0-2.694-1.289-2.694-3.202c-0.013-2.096,1.289-3.384,2.825-3.384
		c0.963,0,1.613,0.456,1.9,0.963h0.025v-3.762H301.071z M299.926,146.205c0-0.144-0.013-0.338-0.052-0.482
		c-0.169-0.729-0.794-1.328-1.653-1.328c-1.185,0-1.887,1.041-1.887,2.434c0,1.275,0.624,2.33,1.861,2.33
		c0.768,0,1.471-0.508,1.679-1.367c0.039-0.156,0.052-0.312,0.052-0.495V146.205z"/>
	<path fill="#4A494A" d="M314.069,145.605c0-0.742-0.013-1.379-0.052-1.965h1.002l0.039,1.237h0.052
		c0.286-0.846,0.977-1.38,1.744-1.38c0.13,0,0.222,0.013,0.325,0.039v1.081c-0.117-0.026-0.234-0.039-0.39-0.039
		c-0.808,0-1.38,0.611-1.536,1.471c-0.026,0.156-0.053,0.338-0.053,0.534v3.358h-1.132V145.605z"/>
	<path fill="#4A494A" d="M328.065,146.738c0,2.33-1.614,3.345-3.137,3.345c-1.705,0-3.02-1.249-3.02-3.241
		c0-2.109,1.38-3.345,3.124-3.345C326.842,143.497,328.065,144.811,328.065,146.738z M323.067,146.803
		c0,1.379,0.794,2.421,1.913,2.421c1.093,0,1.913-1.028,1.913-2.447c0-1.067-0.533-2.421-1.887-2.421
		C323.652,144.356,323.067,145.605,323.067,146.803z"/>
	<path fill="#4A494A" d="M339.382,146.738c0,2.33-1.614,3.345-3.137,3.345c-1.705,0-3.021-1.249-3.021-3.241
		c0-2.109,1.38-3.345,3.124-3.345C338.158,143.497,339.382,144.811,339.382,146.738z M334.384,146.803
		c0,1.379,0.794,2.421,1.913,2.421c1.093,0,1.913-1.028,1.913-2.447c0-1.067-0.533-2.421-1.887-2.421
		C334.969,144.356,334.384,145.605,334.384,146.803z"/>
	<path fill="#4A494A" d="M346.376,141.831v1.809h1.64v0.872h-1.64v3.397c0,0.781,0.221,1.223,0.858,1.223
		c0.3,0,0.522-0.039,0.664-0.078l0.052,0.859c-0.221,0.091-0.572,0.156-1.015,0.156c-0.534,0-0.963-0.169-1.236-0.482
		c-0.326-0.338-0.442-0.898-0.442-1.64v-3.436h-0.976v-0.872h0.976v-1.51L346.376,141.831z"/>
	<path fill="#4A494A" d="M353.317,148.769c0.339,0.221,0.938,0.456,1.51,0.456c0.833,0,1.224-0.417,1.224-0.937
		c0-0.547-0.325-0.846-1.172-1.159c-1.132-0.403-1.666-1.028-1.666-1.783c0-1.015,0.82-1.848,2.174-1.848
		c0.638,0,1.197,0.182,1.549,0.391l-0.286,0.833c-0.247-0.156-0.703-0.365-1.288-0.365c-0.678,0-1.055,0.391-1.055,0.859
		c0,0.52,0.377,0.755,1.197,1.067c1.094,0.417,1.653,0.963,1.653,1.9c0,1.106-0.859,1.888-2.356,1.888
		c-0.689,0-1.327-0.169-1.77-0.43L353.317,148.769z"/>
</g>
<path fill="#262626" d="M108.419,111.68v-0.283l2.298-4.879h23.629v0.284l-2.297,4.878H108.419z"/>
<path fill="#262626" d="M191.404,130.517c-5.673,0-8.51-2.837-8.51-8.511v-14.183c0-5.673,2.837-8.511,8.51-8.511h6.524
	c5.673,0,8.511,2.837,8.511,8.511v25.814c0,5.672-2.837,8.508-8.511,8.508h-12.085v-0.282l2.27-4.823h9.815
	c1.891,0,2.836-1.134,2.836-3.403v-3.973c-0.793,0.568-1.739,0.852-2.836,0.852H191.404z M191.404,125.41h6.524
	c1.891,0,2.836-1.134,2.836-3.404v-14.183c0-2.27-0.945-3.405-2.836-3.405h-6.524c-1.891,0-2.836,1.135-2.836,3.405v14.183
	C188.568,124.275,189.513,125.41,191.404,125.41z"/>
<path fill="#262626" d="M55.052,129.999l1.902-0.901v-21.275c0-2.27,0.946-3.405,2.836-3.405h6.525c1.891,0,2.837,1.135,2.837,3.405
	v22.176h3.771l1.903-0.901v-21.275c0-5.673-2.837-8.511-8.511-8.511H59.79c-1.058,0-2.004,0.294-2.836,0.879V86.546H56.67
	l-5.389,2.554v40.899H55.052z"/>
<path fill="#262626" d="M84.69,129.999h13.865c3.226-1.052,4.84-3.716,4.84-7.994v-4.056h-0.284l-5.39,2.554v1.502
	c0,2.27-0.946,3.404-2.836,3.404H88.36c-1.57,0-2.487-0.776-2.752-2.331l17.787-13.753v-1.503c0-5.673-2.837-8.511-8.51-8.511H88.36
	c-5.674,0-8.51,2.837-8.51,8.511v14.183C79.85,126.284,81.465,128.947,84.69,129.999z M85.524,107.823
	c0-2.27,0.945-3.405,2.837-3.405h6.525c1.759,0,2.694,1.109,2.808,3.329l-12.17,9.409V107.823z"/>
<path fill="#262626" d="M171.203,93.042c-0.662-0.68-0.993-1.498-0.993-2.453c0-0.955,0.331-1.772,0.993-2.453
	c0.662-0.682,1.465-1.022,2.412-1.022c0.945,0,1.75,0.34,2.411,1.022c0.662,0.68,0.993,1.498,0.993,2.453
	c0,0.954-0.331,1.772-0.993,2.453c-0.662,0.683-1.466,1.021-2.411,1.021C172.668,94.063,171.865,93.725,171.203,93.042z
	 M174.549,129.999l1.902-0.901V98.177h-0.284l-5.39,2.553v29.269H174.549z"/>
<path fill="#262626" d="M214.158,93.042c-0.662-0.68-0.993-1.498-0.993-2.453c0-0.955,0.331-1.772,0.993-2.453
	c0.662-0.682,1.465-1.022,2.411-1.022c0.945,0,1.749,0.34,2.412,1.022c0.661,0.68,0.992,1.498,0.992,2.453
	c0,0.954-0.331,1.772-0.992,2.453c-0.663,0.683-1.467,1.021-2.412,1.021C215.623,94.063,214.82,93.725,214.158,93.042z
	 M217.504,129.999l1.902-0.901V98.177h-0.284l-5.39,2.553v29.269H217.504z"/>
<polygon fill="#262626" points="229.594,129.999 233.363,129.999 235.266,129.099 235.266,104.476 240.259,104.476 242.559,99.596 
	242.559,99.312 235.266,99.312 235.266,86.546 234.982,86.546 229.594,89.101 229.594,99.312 224.601,99.312 222.303,104.192 
	222.303,104.476 229.594,104.476 "/>
<path fill="#262626" d="M247.457,129.999H259.4c0.183-0.098,0.36-0.206,0.521-0.335v0.335h3.771l1.903-0.901v-21.275
	c0-5.673-2.838-8.511-8.511-8.511h-7.887l-2.27,4.823v0.283h10.156c1.892,0,2.836,1.135,2.836,3.405v2.638
	c-0.907-0.568-1.854-0.852-2.836-0.852h-5.956c-5.675,0-8.511,2.837-8.511,8.511v3.885
	C242.618,126.284,244.232,128.947,247.457,129.999z M248.291,118.121c0-2.27,0.944-3.404,2.838-3.404h5.956
	c1.892,0,2.836,1.134,2.836,3.404v3.885c0,2.27-0.944,3.404-2.836,3.404h-5.956c-1.893,0-2.838-1.134-2.838-3.404V118.121z"/>
<polygon fill="#262626" points="287.898,129.999 291.67,129.999 293.572,129.099 293.572,104.476 298.565,104.476 300.863,99.596 
	300.863,99.312 293.572,99.312 293.572,86.546 293.288,86.546 287.898,89.101 287.898,99.312 282.907,99.312 280.609,104.192 
	280.609,104.476 287.898,104.476 "/>
<path fill="#262626" d="M306.112,129.999l1.902-0.901v-21.275c0-2.27,0.946-3.405,2.837-3.405h4.823l2.269-4.822v-0.284h-7.093
	c-5.674,0-8.512,2.837-8.512,8.511v22.176H306.112z"/>
<path fill="#262626" d="M324.119,129.999h13.865c3.225-1.052,4.839-3.716,4.839-7.994v-4.056h-0.283l-5.391,2.554v1.502
	c0,2.27-0.944,3.404-2.836,3.404h-6.523c-1.569,0-2.486-0.776-2.754-2.331l17.787-13.753v-1.503c0-5.673-2.837-8.511-8.51-8.511
	h-6.523c-5.674,0-8.511,2.837-8.511,8.511v14.183C319.279,126.284,320.894,128.947,324.119,129.999z M324.952,107.823
	c0-2.27,0.945-3.405,2.838-3.405h6.523c1.76,0,2.695,1.109,2.809,3.329l-12.17,9.409V107.823z"/>
<path fill="#262626" d="M352.689,129.999h13.865c3.225-1.052,4.84-3.716,4.84-7.994v-4.056h-0.284l-5.392,2.554v1.502
	c0,2.27-0.943,3.404-2.836,3.404h-6.523c-1.569,0-2.486-0.776-2.753-2.331l17.788-13.753v-1.503c0-5.673-2.838-8.511-8.512-8.511
	h-6.523c-5.673,0-8.511,2.837-8.511,8.511v14.183C347.849,126.284,349.464,128.947,352.689,129.999z M353.522,107.823
	c0-2.27,0.945-3.405,2.837-3.405h6.523c1.76,0,2.696,1.109,2.81,3.329l-12.17,9.409V107.823z"/>
<path fill="#262626" d="M144.211,129.999h13.866c3.225-1.052,4.84-3.716,4.84-7.994V86.546h-0.284l-5.39,2.554v11.091
	c-0.605-0.586-1.55-0.879-2.836-0.879h-6.525c-5.674,0-8.51,2.837-8.51,8.511v14.183
	C139.372,126.284,140.986,128.947,144.211,129.999z M145.045,107.823c0-2.27,0.944-3.405,2.836-3.405h6.525
	c1.891,0,2.836,1.135,2.836,3.405v14.183c0,2.27-0.946,3.404-2.836,3.404h-6.525c-1.892,0-2.836-1.134-2.836-3.404V107.823z"/>
<polygon fill="#262626" points="35.42,129.999 39.191,129.999 41.094,129.099 41.094,104.476 46.086,104.476 48.384,99.596 
	48.384,99.312 41.094,99.312 41.094,86.546 40.81,86.546 35.42,89.101 35.42,99.312 30.427,99.312 28.13,104.192 28.13,104.476 
	35.42,104.476 "/>
<path fill="#262626" d="M269.625,124.375c0,0,4.637-21.943,0.195-36.012h8.146c0,0-3.704,25.177,3.702,41.961L269.625,124.375z"/>
<path fill="#EF3A24" d="M270.553,48.381c0,1.356-1.099,2.457-2.455,2.457h-16.063c-1.355,0-2.454-1.101-2.454-2.457V32.319
	c0-1.354,1.1-2.455,2.454-2.455h16.063c1.356,0,2.455,1.101,2.455,2.455V48.381z"/>
<path fill="#262626" d="M317.944,59.982c0,1.356-1.1,2.458-2.457,2.458h-16.062c-1.354,0-2.454-1.102-2.454-2.458V43.921
	c0-1.355,1.1-2.456,2.454-2.456h16.062c1.356,0,2.457,1.101,2.457,2.456V59.982z"/>
<path fill="#262626" d="M275.718,69.334c0,1.154-0.937,2.092-2.092,2.092h-13.682c-1.154,0-2.092-0.938-2.092-2.092V55.651
	c0-1.154,0.938-2.092,2.092-2.092h13.682c1.155,0,2.092,0.938,2.092,2.092V69.334z"/>
<path fill="#262626" d="M292.87,44.403c0,1.154-0.939,2.092-2.094,2.092h-13.682c-1.153,0-2.091-0.938-2.091-2.092V30.722
	c0-1.154,0.938-2.092,2.091-2.092h13.682c1.155,0,2.094,0.938,2.094,2.092V44.403z"/>
<path fill="#262626" d="M299.602,80.225c0,1.015-0.821,1.836-1.836,1.836h-11.997c-1.011,0-1.832-0.821-1.832-1.836V68.229
	c0-1.012,0.821-1.834,1.832-1.834h11.997c1.015,0,1.836,0.822,1.836,1.834V80.225z"/>
<path fill="#262626" d="M244.626,42.461c0,1.013-0.82,1.834-1.834,1.834h-11.998c-1.012,0-1.833-0.822-1.833-1.834V30.464
	c0-1.012,0.821-1.834,1.833-1.834h11.998c1.014,0,1.834,0.822,1.834,1.834V42.461z"/>
<path fill="#262626" d="M311.024,35.863c0,1.013-0.823,1.834-1.836,1.834h-11.997c-1.012,0-1.834-0.821-1.834-1.834V23.865
	c0-1.013,0.822-1.834,1.834-1.834h11.997c1.013,0,1.836,0.822,1.836,1.834V35.863z"/>
<path fill="#262626" d="M276.724,24.276c0,0.905-0.734,1.64-1.638,1.64h-10.726c-0.904,0-1.64-0.735-1.64-1.64V13.551
	c0-0.905,0.735-1.639,1.64-1.639h10.726c0.903,0,1.638,0.734,1.638,1.639V24.276z"/>
<path fill="#262626" d="M292.87,60.853c0,0.906-0.734,1.64-1.642,1.64h-10.725c-0.904,0-1.64-0.734-1.64-1.64V50.128
	c0-0.906,0.735-1.64,1.64-1.64h10.725c0.907,0,1.642,0.734,1.642,1.64V60.853z"/>
<path fill="#262626" d="M258.053,25.617c0,0.775-0.629,1.404-1.404,1.404h-9.184c-0.774,0-1.403-0.629-1.403-1.404v-9.184
	c0-0.775,0.629-1.404,1.403-1.404h9.184c0.775,0,1.404,0.629,1.404,1.404V25.617z"/>
<path fill="#262626" d="M248.417,58.151c0,0.776-0.628,1.404-1.403,1.404h-9.184c-0.774,0-1.404-0.628-1.404-1.404V48.97
	c0-0.776,0.63-1.405,1.404-1.405h9.184c0.775,0,1.403,0.629,1.403,1.405V58.151z"/>
<path fill="#262626" d="M263.35,84.199c0,0.728-0.593,1.322-1.322,1.322h-8.649c-0.729,0-1.32-0.593-1.32-1.322V75.55
	c0-0.731,0.592-1.322,1.32-1.322h8.649c0.73,0,1.322,0.591,1.322,1.322V84.199z"/>
<path fill="#262626" d="M279.632,84.199c0,0.728-0.593,1.322-1.323,1.322h-8.647c-0.73,0-1.322-0.593-1.322-1.322V75.55
	c0-0.731,0.593-1.322,1.322-1.322h8.647c0.73,0,1.323,0.591,1.323,1.322V84.199z"/>
<path fill="#262626" d="M250.534,72.795c0,0.654-0.53,1.185-1.184,1.185H241.6c-0.653,0-1.185-0.53-1.185-1.185v-7.749
	c0-0.654,0.531-1.185,1.185-1.185h7.751c0.653,0,1.184,0.531,1.184,1.185V72.795z"/>
<path fill="#262626" d="M308.25,73.363c0,0.326-0.265,0.591-0.592,0.591h-3.876c-0.327,0-0.592-0.265-0.592-0.591v-3.877
	c0-0.326,0.265-0.591,0.592-0.591h3.876c0.327,0,0.592,0.265,0.592,0.591V73.363z"/>
<path fill="#262626" d="M255.594,59.958c0,0.327-0.266,0.591-0.593,0.591h-3.875c-0.327,0-0.592-0.265-0.592-0.591v-3.875
	c0-0.327,0.265-0.592,0.592-0.592h3.875c0.327,0,0.593,0.265,0.593,0.592V59.958z"/>
<path fill="#262626" d="M291.77,24.179c0,0.669-0.543,1.213-1.215,1.213h-7.935c-0.671,0-1.214-0.543-1.214-1.213v-7.936
	c0-0.67,0.543-1.213,1.214-1.213h7.935c0.672,0,1.215,0.543,1.215,1.213V24.179z"/>
<g>
	<path fill="#262626" d="M271.375,127.875l1.642,3.277c-1.19,1.131-2.388,2.537-3.457,4.236l-0.648-0.63
		c0,0-3.998-0.422-6.464,3.379c0,0,0.011,0.166,0.203,0.034c0.189-0.137,2.873-2.294,5.637-1.807
		c0.255,0.042,0.443,0.061,0.638,0.084c-1.279,2.334-2.274,5.187-2.626,8.634c0,0,0.27,0.441,0.596-0.18
		c0.208-0.395,1.954-4.291,5.227-7.756c0.545,3.427-1.627,6.85-1.776,7.112c-0.151,0.276,0.081,0.268,0.081,0.268
		c4.767-3.85,3.639-9.181,3.639-9.181l-0.013-0.014c1.562-1.288,3.37-2.394,5.441-3.04c0.543-0.17,1.017-0.335,1.448-0.488
		c2.28,1.661,3.393,4.501,3.496,4.724c0.118,0.268,0.24,0.096,0.24,0.096c-0.111-2.466-1.047-4.229-2.062-5.472h0.266
		c1.867,1.041,3.472,2.423,4.814,3.871c0.919,3.611-1.527,7.416-1.683,7.683c-0.146,0.282,0.081,0.269,0.081,0.269
		c2.215-1.787,3.136-3.886,3.508-5.63c1.93,2.615,2.982,4.938,3.129,5.236c0.334,0.62,0.6,0.181,0.6,0.181
		c-0.096-0.934-0.247-1.828-0.432-2.674c1.056,0.461,2.741,0.859,4.758,0.016c0,0,0.065-0.115-0.127-0.112
		c-0.19,0-3.001,0.219-4.645-1.378c-0.181-0.182-0.329-0.311-0.469-0.422c-1.397-4.575-3.969-7.747-6.354-9.855l-6.188-2.962
		l-10.125-1L271.375,127.875z"/>
</g>
</svg>
