<?xml version="1.0" encoding="utf-8"?>
<!-- Generator: Adobe Illustrator 17.0.0, SVG Export Plug-In . SVG Version: 6.00 Build 0)  -->
<!DOCTYPE svg PUBLIC "-//W3C//DTD SVG 1.1//EN" "http://www.w3.org/Graphics/SVG/1.1/DTD/svg11.dtd">
<svg version="1.1" id="Layer_1" xmlns="http://www.w3.org/2000/svg" xmlns:xlink="http://www.w3.org/1999/xlink" x="0px" y="0px"
	 width="400px" height="161px" viewBox="0 0 400 161" enable-background="new 0 0 400 161" xml:space="preserve">
<path fill="#5A9341" d="M108.316,111.577v-0.283l2.298-4.879h23.629v0.284l-2.297,4.878H108.316z"/>
<path fill="#5A9341" d="M191.301,130.414c-5.673,0-8.51-2.837-8.51-8.511V107.72c0-5.673,2.837-8.511,8.51-8.511h6.524
	c5.673,0,8.511,2.837,8.511,8.511v25.814c0,5.672-2.837,8.508-8.511,8.508H185.74v-0.282l2.27-4.823h9.815
	c1.891,0,2.836-1.134,2.836-3.403v-3.973c-0.793,0.568-1.739,0.852-2.836,0.852h-6.524V130.414z M191.301,125.307h6.524
	c1.891,0,2.836-1.134,2.836-3.404V107.72c0-2.27-0.945-3.405-2.836-3.405h-6.524c-1.891,0-2.836,1.135-2.836,3.405v14.183
	C188.464,124.172,189.41,125.307,191.301,125.307z"/>
<path fill="#5A9341" d="M54.948,129.896l1.902-0.901V107.72c0-2.27,0.946-3.405,2.836-3.405h6.525c1.891,0,2.837,1.135,2.837,3.405
	v22.176h3.771l1.903-0.901V107.72c0-5.673-2.837-8.511-8.511-8.511h-6.525c-1.058,0-2.004,0.294-2.836,0.879V86.443h-0.284
	l-5.389,2.554v40.899H54.948z"/>
<path fill="#5A9341" d="M84.586,129.896h13.865c3.226-1.052,4.84-3.716,4.84-7.994v-4.056h-0.284l-5.39,2.554v1.502
	c0,2.27-0.946,3.404-2.836,3.404h-6.525c-1.57,0-2.487-0.776-2.752-2.331l17.787-13.753v-1.503c0-5.673-2.837-8.511-8.51-8.511
	h-6.525c-5.674,0-8.51,2.837-8.51,8.511v14.183C79.747,126.181,81.361,128.844,84.586,129.896z M85.42,107.72
	c0-2.27,0.945-3.405,2.837-3.405h6.525c1.759,0,2.694,1.109,2.808,3.329l-12.17,9.409V107.72z"/>
<path fill="#5A9341" d="M171.1,92.939c-0.662-0.68-0.993-1.498-0.993-2.453s0.331-1.772,0.993-2.453
	c0.662-0.682,1.465-1.022,2.412-1.022c0.945,0,1.75,0.34,2.411,1.022c0.662,0.68,0.993,1.498,0.993,2.453
	c0,0.954-0.331,1.772-0.993,2.453c-0.662,0.683-1.466,1.021-2.411,1.021C172.565,93.961,171.762,93.622,171.1,92.939z
	 M174.445,129.896l1.902-0.901V98.074h-0.284l-5.39,2.553v29.269H174.445z"/>
<path fill="#5A9341" d="M214.055,92.939c-0.662-0.68-0.993-1.498-0.993-2.453s0.331-1.772,0.993-2.453
	c0.662-0.682,1.465-1.022,2.411-1.022c0.945,0,1.749,0.34,2.412,1.022c0.661,0.68,0.992,1.498,0.992,2.453
	c0,0.954-0.331,1.772-0.992,2.453c-0.663,0.683-1.467,1.021-2.412,1.021C215.52,93.961,214.717,93.622,214.055,92.939z
	 M217.4,129.896l1.902-0.901V98.074h-0.284l-5.39,2.553v29.269H217.4z"/>
<polygon fill="#5A9341" points="229.49,129.896 233.26,129.896 235.162,128.996 235.162,104.373 240.155,104.373 242.455,99.493 
	242.455,99.21 235.162,99.21 235.162,86.443 234.879,86.443 229.49,88.998 229.49,99.21 224.497,99.21 222.199,104.089 
	222.199,104.373 229.49,104.373 "/>
<path fill="#5A9341" d="M247.354,129.896h11.943c0.183-0.098,0.36-0.206,0.52-0.335v0.335h3.772l1.903-0.901V107.72
	c0-5.673-2.838-8.511-8.511-8.511h-7.887l-2.27,4.823v0.283h10.156c1.892,0,2.836,1.135,2.836,3.405v2.638
	c-0.907-0.568-1.853-0.852-2.836-0.852h-5.956c-5.675,0-8.511,2.837-8.511,8.511v3.885
	C242.515,126.181,244.129,128.844,247.354,129.896z M248.188,118.018c0-2.27,0.944-3.404,2.838-3.404h5.956
	c1.892,0,2.836,1.134,2.836,3.404v3.885c0,2.27-0.944,3.404-2.836,3.404h-5.956c-1.893,0-2.838-1.134-2.838-3.404V118.018z"/>
<polygon fill="#5A9341" points="287.795,129.896 291.566,129.896 293.469,128.996 293.469,104.373 298.462,104.373 300.76,99.493 
	300.76,99.21 293.469,99.21 293.469,86.443 293.185,86.443 287.795,88.998 287.795,99.21 282.804,99.21 280.506,104.089 
	280.506,104.373 287.795,104.373 "/>
<path fill="#5A9341" d="M306.009,129.896l1.902-0.901V107.72c0-2.27,0.946-3.405,2.837-3.405h4.823l2.27-4.822V99.21h-7.093
	c-5.674,0-8.512,2.837-8.512,8.511v22.176h3.773V129.896z"/>
<path fill="#5A9341" d="M324.016,129.896h13.865c3.225-1.052,4.839-3.716,4.839-7.994v-4.056h-0.283l-5.391,2.554v1.502
	c0,2.27-0.944,3.404-2.836,3.404h-6.523c-1.569,0-2.486-0.776-2.754-2.331l17.787-13.753v-1.503c0-5.673-2.837-8.511-8.51-8.511
	h-6.523c-5.674,0-8.511,2.837-8.511,8.511v14.183C319.176,126.181,320.79,128.844,324.016,129.896z M324.849,107.72
	c0-2.27,0.945-3.405,2.838-3.405h6.523c1.76,0,2.695,1.109,2.809,3.329l-12.17,9.409V107.72z"/>
<path fill="#5A9341" d="M352.586,129.896h13.865c3.225-1.052,4.84-3.716,4.84-7.994v-4.056h-0.284l-5.392,2.554v1.502
	c0,2.27-0.943,3.404-2.836,3.404h-6.523c-1.569,0-2.486-0.776-2.753-2.331l17.788-13.753v-1.503c0-5.673-2.838-8.511-8.512-8.511
	h-6.523c-5.673,0-8.511,2.837-8.511,8.511v14.183C347.745,126.181,349.36,128.844,352.586,129.896z M353.419,107.72
	c0-2.27,0.945-3.405,2.837-3.405h6.523c1.76,0,2.696,1.109,2.81,3.329l-12.17,9.409V107.72z"/>
<path fill="#5A9341" d="M144.107,129.896h13.866c3.225-1.052,4.84-3.716,4.84-7.994V86.443h-0.284l-5.39,2.554v11.091
	c-0.605-0.586-1.55-0.879-2.836-0.879h-6.525c-5.674,0-8.51,2.837-8.51,8.511v14.183
	C139.268,126.181,140.883,128.844,144.107,129.896z M144.942,107.72c0-2.27,0.944-3.405,2.836-3.405h6.525
	c1.891,0,2.836,1.135,2.836,3.405v14.183c0,2.27-0.946,3.404-2.836,3.404h-6.525c-1.892,0-2.836-1.134-2.836-3.404V107.72z"/>
<polygon fill="#5A9341" points="35.317,129.896 39.087,129.896 40.99,128.996 40.99,104.373 45.983,104.373 48.281,99.493 
	48.281,99.21 40.99,99.21 40.99,86.443 40.707,86.443 35.317,88.998 35.317,99.21 30.324,99.21 28.026,104.089 28.026,104.373 
	35.317,104.373 "/>
<path fill="#5A9341" d="M269.522,124.272c0,0,4.637-21.943,0.195-36.012h8.146c0,0-3.704,25.177,3.702,41.961L269.522,124.272z"/>
<path fill="#EE3A24" d="M270.449,48.278c0,1.356-1.099,2.457-2.455,2.457H251.93c-1.355,0-2.454-1.101-2.454-2.457V32.216
	c0-1.354,1.1-2.455,2.454-2.455h16.064c1.356,0,2.455,1.101,2.455,2.455V48.278z"/>
<path fill="#5A9341" d="M317.841,59.879c0,1.356-1.1,2.458-2.457,2.458h-16.061c-1.354,0-2.454-1.102-2.454-2.458V43.818
	c0-1.355,1.1-2.456,2.454-2.456h16.061c1.357,0,2.457,1.101,2.457,2.456V59.879z"/>
<path fill="#5A9341" d="M275.614,69.231c0,1.154-0.936,2.092-2.092,2.092H259.84c-1.154,0-2.092-0.938-2.092-2.092V55.548
	c0-1.154,0.938-2.092,2.092-2.092h13.682c1.155,0,2.092,0.938,2.092,2.092V69.231z"/>
<path fill="#5A9341" d="M292.767,44.3c0,1.154-0.939,2.092-2.094,2.092h-13.682c-1.153,0-2.091-0.938-2.091-2.092V30.619
	c0-1.154,0.938-2.092,2.091-2.092h13.682c1.155,0,2.094,0.938,2.094,2.092V44.3z"/>
<path fill="#5A9341" d="M299.498,80.122c0,1.015-0.821,1.836-1.836,1.836h-11.997c-1.011,0-1.832-0.821-1.832-1.836V68.126
	c0-1.012,0.821-1.834,1.832-1.834h11.997c1.015,0,1.836,0.822,1.836,1.834V80.122z"/>
<path fill="#5A9341" d="M244.523,42.358c0,1.013-0.82,1.834-1.834,1.834H230.69c-1.012,0-1.833-0.822-1.833-1.834V30.361
	c0-1.012,0.821-1.834,1.833-1.834h11.998c1.014,0,1.834,0.822,1.834,1.834L244.523,42.358L244.523,42.358z"/>
<path fill="#5A9341" d="M310.921,35.76c0,1.013-0.823,1.834-1.836,1.834h-11.997c-1.012,0-1.834-0.821-1.834-1.834V23.762
	c0-1.013,0.822-1.834,1.834-1.834h11.997c1.013,0,1.836,0.822,1.836,1.834V35.76z"/>
<path fill="#5A9341" d="M276.62,24.173c0,0.905-0.734,1.64-1.638,1.64h-10.727c-0.904,0-1.64-0.735-1.64-1.64V13.448
	c0-0.905,0.735-1.639,1.64-1.639h10.727c0.903,0,1.638,0.734,1.638,1.639V24.173z"/>
<path fill="#5A9341" d="M292.767,60.75c0,0.906-0.734,1.64-1.642,1.64H280.4c-0.904,0-1.64-0.734-1.64-1.64V50.025
	c0-0.906,0.735-1.64,1.64-1.64h10.725c0.907,0,1.642,0.734,1.642,1.64V60.75z"/>
<path fill="#5A9341" d="M257.949,25.514c0,0.775-0.629,1.404-1.404,1.404h-9.184c-0.774,0-1.403-0.629-1.403-1.404V16.33
	c0-0.775,0.629-1.404,1.403-1.404h9.184c0.775,0,1.404,0.629,1.404,1.404V25.514z"/>
<path fill="#5A9341" d="M248.314,58.048c0,0.776-0.628,1.404-1.403,1.404h-9.184c-0.774,0-1.404-0.628-1.404-1.404v-9.181
	c0-0.776,0.63-1.405,1.404-1.405h9.184c0.775,0,1.403,0.629,1.403,1.405V58.048z"/>
<path fill="#5A9341" d="M263.246,84.096c0,0.728-0.593,1.322-1.322,1.322h-8.649c-0.728,0-1.32-0.593-1.32-1.322v-8.649
	c0-0.731,0.592-1.322,1.32-1.322h8.649c0.729,0,1.322,0.591,1.322,1.322V84.096z"/>
<path fill="#5A9341" d="M279.528,84.096c0,0.728-0.593,1.322-1.323,1.322h-8.647c-0.729,0-1.322-0.593-1.322-1.322v-8.649
	c0-0.731,0.593-1.322,1.322-1.322h8.647c0.73,0,1.323,0.591,1.323,1.322V84.096z"/>
<path fill="#5A9341" d="M250.431,72.692c0,0.654-0.53,1.185-1.184,1.185h-7.751c-0.653,0-1.185-0.53-1.185-1.185v-7.749
	c0-0.654,0.531-1.185,1.185-1.185h7.751c0.653,0,1.184,0.531,1.184,1.185V72.692z"/>
<path fill="#5A9341" d="M308.147,73.26c0,0.326-0.265,0.591-0.592,0.591h-3.876c-0.327,0-0.592-0.265-0.592-0.591v-3.877
	c0-0.326,0.265-0.591,0.592-0.591h3.876c0.327,0,0.592,0.265,0.592,0.591V73.26z"/>
<path fill="#5A9341" d="M255.49,59.856c0,0.327-0.266,0.591-0.593,0.591h-3.875c-0.327,0-0.592-0.265-0.592-0.591V55.98
	c0-0.327,0.265-0.592,0.592-0.592h3.875c0.327,0,0.593,0.265,0.593,0.592V59.856z"/>
<path fill="#5A9341" d="M291.666,24.076c0,0.669-0.543,1.213-1.215,1.213h-7.935c-0.671,0-1.214-0.543-1.214-1.213V16.14
	c0-0.67,0.543-1.213,1.214-1.213h7.935c0.672,0,1.215,0.543,1.215,1.213V24.076z"/>
<g>
	<g>
		<path fill="#5A9341" d="M271.272,127.772l1.642,3.277c-1.189,1.131-2.388,2.537-3.457,4.236l-0.647-0.63
			c0,0-3.998-0.422-6.464,3.379c0,0,0.011,0.166,0.203,0.034c0.189-0.137,2.873-2.294,5.637-1.807
			c0.255,0.042,0.443,0.061,0.638,0.084c-1.279,2.334-2.274,5.187-2.626,8.634c0,0,0.271,0.441,0.596-0.18
			c0.208-0.395,1.954-4.291,5.227-7.756c0.545,3.427-1.627,6.85-1.776,7.112c-0.151,0.276,0.081,0.268,0.081,0.268
			c4.767-3.85,3.639-9.181,3.639-9.181l-0.013-0.014c1.562-1.288,3.37-2.394,5.441-3.04c0.543-0.17,1.017-0.335,1.448-0.488
			c2.28,1.661,3.393,4.501,3.496,4.724c0.118,0.268,0.24,0.096,0.24,0.096c-0.111-2.466-1.047-4.229-2.062-5.472h0.266
			c1.867,1.041,3.472,2.423,4.815,3.871c0.919,3.611-1.527,7.416-1.683,7.683c-0.146,0.282,0.081,0.269,0.081,0.269
			c2.215-1.787,3.136-3.886,3.508-5.63c1.93,2.615,2.982,4.938,3.129,5.236c0.334,0.62,0.6,0.181,0.6,0.181
			c-0.096-0.934-0.247-1.828-0.432-2.674c1.056,0.461,2.741,0.859,4.758,0.016c0,0,0.066-0.115-0.127-0.112
			c-0.189,0-3.001,0.219-4.645-1.378c-0.181-0.182-0.329-0.311-0.469-0.422c-1.398-4.575-3.969-7.747-6.355-9.855l-6.187-2.962
			l-10.125-1L271.272,127.772z"/>
	</g>
</g>
<g>
	<g>
		<path fill="#49494A" d="M315.163,150.467v-5.428h-0.885v-0.872h0.885v-0.299c0-0.885,0.195-1.692,0.728-2.2
			c0.43-0.417,1.002-0.585,1.535-0.585c0.404,0,0.756,0.091,0.977,0.182l-0.156,0.885c-0.17-0.078-0.404-0.144-0.728-0.144
			c-0.977,0-1.225,0.859-1.225,1.822v0.338h1.523v0.872h-1.523v5.428H315.163z"/>
		<path fill="#49494A" d="M323.015,146.133c0-0.742-0.012-1.379-0.051-1.965h1.002l0.039,1.237h0.051
			c0.287-0.846,0.977-1.38,1.744-1.38c0.131,0,0.223,0.013,0.326,0.039v1.081c-0.117-0.026-0.234-0.039-0.391-0.039
			c-0.807,0-1.379,0.611-1.535,1.471c-0.027,0.156-0.053,0.338-0.053,0.534v3.358h-1.133V146.133z"/>
		<path fill="#49494A" d="M336.712,148.75c0,0.65,0.012,1.223,0.051,1.718h-1.014l-0.066-1.028h-0.025
			c-0.299,0.508-0.963,1.172-2.082,1.172c-0.99,0-2.174-0.547-2.174-2.76v-3.684h1.145v3.488c0,1.197,0.365,2.004,1.406,2.004
			c0.768,0,1.301-0.533,1.51-1.041c0.064-0.169,0.104-0.377,0.104-0.585v-3.866h1.146V148.75z"/>
		<path fill="#49494A" d="M344.057,142.398c0.012,0.391-0.273,0.703-0.729,0.703c-0.404,0-0.691-0.312-0.691-0.703
			c0-0.403,0.301-0.716,0.717-0.716C343.784,141.682,344.057,141.994,344.057,142.398z M342.782,150.467v-6.3h1.145v6.3H342.782z"/>
		<path fill="#49494A" d="M351.376,142.359v1.809h1.639v0.872h-1.639v3.398c0,0.781,0.221,1.223,0.857,1.223
			c0.301,0,0.522-0.039,0.664-0.078l0.053,0.859c-0.221,0.092-0.572,0.156-1.016,0.156c-0.533,0-0.963-0.169-1.236-0.482
			c-0.326-0.339-0.441-0.897-0.441-1.64v-3.437h-0.977v-0.872h0.977v-1.51L351.376,142.359z"/>
		<path fill="#49494A" d="M358.317,149.296c0.338,0.221,0.938,0.455,1.51,0.455c0.832,0,1.223-0.416,1.223-0.938
			c0-0.546-0.324-0.846-1.172-1.158c-1.131-0.403-1.666-1.028-1.666-1.783c0-1.015,0.82-1.848,2.174-1.848
			c0.639,0,1.197,0.182,1.549,0.391l-0.285,0.833c-0.248-0.156-0.703-0.365-1.289-0.365c-0.678,0-1.055,0.391-1.055,0.859
			c0,0.521,0.377,0.755,1.197,1.067c1.094,0.416,1.654,0.963,1.654,1.9c0,1.105-0.859,1.887-2.358,1.887
			c-0.689,0-1.326-0.169-1.77-0.43L358.317,149.296z"/>
	</g>
	<g>
		<path fill="#49494A" d="M277.534,150.467l-0.09-0.794h-0.039c-0.352,0.494-1.029,0.938-1.928,0.938
			c-1.275,0-1.926-0.898-1.926-1.809c0-1.523,1.353-2.356,3.787-2.343v-0.13c0-0.521-0.143-1.458-1.432-1.458
			c-0.586,0-1.197,0.182-1.639,0.468l-0.262-0.755c0.521-0.338,1.275-0.56,2.07-0.56c1.926,0,2.395,1.314,2.395,2.577v2.356
			c0,0.546,0.025,1.08,0.104,1.51H277.534z M277.366,147.253c-1.25-0.026-2.67,0.195-2.67,1.419c0,0.742,0.496,1.094,1.082,1.094
			c0.818,0,1.34-0.521,1.521-1.055c0.039-0.117,0.066-0.248,0.066-0.365V147.253z"/>
		<path fill="#49494A" d="M284.489,145.873c0-0.65-0.012-1.184-0.051-1.705h1.014l0.066,1.042h0.025
			c0.312-0.599,1.041-1.185,2.082-1.185c0.873,0,2.227,0.52,2.227,2.681v3.762h-1.146v-3.631c0-1.015-0.377-1.861-1.457-1.861
			c-0.756,0-1.34,0.534-1.535,1.171c-0.053,0.143-0.078,0.338-0.078,0.534v3.788h-1.146V145.873z"/>
		<path fill="#49494A" d="M301.325,141.226v7.614c0,0.56,0.012,1.197,0.051,1.627h-1.027l-0.053-1.093h-0.025
			c-0.352,0.702-1.119,1.236-2.148,1.236c-1.521,0-2.693-1.289-2.693-3.202c-0.014-2.096,1.289-3.384,2.824-3.384
			c0.963,0,1.613,0.456,1.9,0.963h0.025v-3.762H301.325z M300.179,146.732c0-0.143-0.012-0.338-0.051-0.482
			c-0.17-0.729-0.795-1.328-1.654-1.328c-1.184,0-1.887,1.042-1.887,2.434c0,1.276,0.625,2.331,1.861,2.331
			c0.768,0,1.471-0.508,1.68-1.367c0.039-0.156,0.051-0.312,0.051-0.495V146.732z"/>
	</g>
	<g>
		<path fill="#49494A" d="M217.472,146.133c0-0.742-0.014-1.379-0.053-1.965h1.002l0.039,1.237h0.053
			c0.285-0.846,0.977-1.38,1.744-1.38c0.129,0,0.221,0.013,0.324,0.039v1.081c-0.117-0.026-0.234-0.039-0.389-0.039
			c-0.809,0-1.381,0.611-1.537,1.471c-0.025,0.156-0.053,0.338-0.053,0.534v3.358h-1.131V146.133z"/>
		<path fill="#49494A" d="M231.468,147.266c0,2.33-1.615,3.345-3.137,3.345c-1.705,0-3.021-1.25-3.021-3.241
			c0-2.109,1.381-3.345,3.125-3.345C230.243,144.025,231.468,145.339,231.468,147.266z M226.47,147.331
			c0,1.38,0.793,2.421,1.912,2.421c1.094,0,1.914-1.028,1.914-2.447c0-1.067-0.533-2.421-1.887-2.421
			C227.054,144.883,226.47,146.133,226.47,147.331z"/>
		<path fill="#49494A" d="M242.784,147.266c0,2.33-1.615,3.345-3.137,3.345c-1.705,0-3.021-1.25-3.021-3.241
			c0-2.109,1.381-3.345,3.125-3.345C241.559,144.025,242.784,145.339,242.784,147.266z M237.786,147.331
			c0,1.38,0.793,2.421,1.912,2.421c1.094,0,1.914-1.028,1.914-2.447c0-1.067-0.533-2.421-1.887-2.421
			C238.37,144.883,237.786,146.133,237.786,147.331z"/>
		<path fill="#49494A" d="M249.778,142.359v1.809h1.639v0.872h-1.639v3.398c0,0.781,0.221,1.223,0.857,1.223
			c0.301,0,0.521-0.039,0.664-0.078l0.053,0.859c-0.221,0.092-0.572,0.156-1.016,0.156c-0.533,0-0.963-0.169-1.236-0.482
			c-0.326-0.339-0.441-0.897-0.441-1.64v-3.437h-0.977v-0.872h0.977v-1.51L249.778,142.359z"/>
		<path fill="#49494A" d="M256.72,149.296c0.338,0.221,0.938,0.455,1.51,0.455c0.832,0,1.223-0.416,1.223-0.938
			c0-0.546-0.324-0.846-1.172-1.158c-1.131-0.403-1.666-1.028-1.666-1.783c0-1.015,0.82-1.848,2.174-1.848
			c0.639,0,1.197,0.182,1.549,0.391l-0.285,0.833c-0.248-0.156-0.703-0.365-1.289-0.365c-0.678,0-1.055,0.391-1.055,0.859
			c0,0.521,0.377,0.755,1.197,1.067c1.094,0.416,1.654,0.963,1.654,1.9c0,1.105-0.859,1.887-2.357,1.887
			c-0.689,0-1.326-0.169-1.77-0.43L256.72,149.296z"/>
	</g>
</g>
</svg>
