<?xml version="1.0" encoding="utf-8"?>
<!-- Generator: Adobe Illustrator 17.0.0, SVG Export Plug-In . SVG Version: 6.00 Build 0)  -->
<!DOCTYPE svg PUBLIC "-//W3C//DTD SVG 1.1//EN" "http://www.w3.org/Graphics/SVG/1.1/DTD/svg11.dtd">
<svg version="1.1" id="Layer_1" xmlns="http://www.w3.org/2000/svg" xmlns:xlink="http://www.w3.org/1999/xlink" x="0px" y="0px"
	 width="336px" height="115px" viewBox="0 0 336 115" enable-background="new 0 0 336 115" xml:space="preserve">
<g>
	<g>
		<path fill="#F9F9FA" d="M7.275,66.961v8.771c0.314-0.144,0.622-0.25,0.921-0.32c0.3-0.072,0.62-0.107,0.963-0.107h0.128H25.59
			v3.081H9.287c-0.57,0-1.048,0.192-1.432,0.577c-0.386,0.385-0.58,0.864-0.58,1.432v11.254c0,0.543,0.186,1.005,0.557,1.39
			c0.37,0.386,0.827,0.594,1.369,0.622h11.297c0.569,0,1.048-0.192,1.432-0.577c0.386-0.386,0.578-0.851,0.578-1.392h3.082
			c0,0.657-0.122,1.269-0.364,1.839c-0.243,0.572-0.565,1.085-0.962,1.542c-0.4,0.457-0.885,0.827-1.455,1.112
			c-0.571,0.287-1.17,0.457-1.797,0.515v0.042h-0.514H9.202H9.159c-0.685-0.029-1.326-0.177-1.926-0.449
			c-0.598-0.271-1.127-0.634-1.583-1.091c-0.456-0.457-0.813-0.992-1.07-1.604c-0.256-0.614-0.385-1.264-0.385-1.949V66.961H7.275z"
			/>
		<path fill="#F9F9FA" d="M34.961,75.348h11.211c0.685,0,1.341,0.135,1.968,0.404c0.627,0.274,1.169,0.636,1.626,1.093
			c0.455,0.458,0.819,0.998,1.09,1.626c0.271,0.628,0.407,1.283,0.407,1.969v16.301h-3.081V80.441c0-0.572-0.192-1.05-0.578-1.436
			c-0.385-0.384-0.863-0.577-1.433-0.577H34.961c-0.514,0-0.962,0.172-1.347,0.515c-0.386,0.341-0.607,0.769-0.664,1.282v0.216
			v16.301h-3.081V80.441v-0.385v-13.01v-0.085h3.081v0.085v8.73c0.313-0.143,0.634-0.25,0.963-0.322
			C34.24,75.384,34.591,75.348,34.961,75.348z"/>
		<path fill="#F9F9FA" d="M71.845,75.348c0.685,0,1.341,0.135,1.969,0.404c0.626,0.274,1.168,0.636,1.625,1.093
			c0.456,0.458,0.819,0.992,1.09,1.605c0.271,0.614,0.407,1.261,0.407,1.945v2.355c-0.028,0.686-0.186,1.32-0.47,1.903
			c-0.286,0.585-0.658,1.093-1.113,1.52c-0.456,0.429-0.985,0.771-1.583,1.028c-0.6,0.256-1.242,0.385-1.926,0.385H58.624v4.064
			c0,0.572,0.191,1.05,0.578,1.436c0.385,0.385,0.862,0.577,1.432,0.577h11.211c0.57,0,1.049-0.192,1.434-0.577
			c0.385-0.386,0.578-0.864,0.578-1.436h3.08c0,0.715-0.136,1.378-0.407,1.992c-0.271,0.612-0.634,1.147-1.09,1.602
			c-0.457,0.458-0.999,0.822-1.625,1.093c-0.628,0.27-1.285,0.405-1.969,0.405H60.634c-0.713,0-1.376-0.135-1.99-0.405
			c-0.613-0.271-1.148-0.635-1.604-1.093c-0.456-0.455-0.82-0.99-1.09-1.602c-0.272-0.614-0.408-1.277-0.408-1.992V80.441
			c0-0.686,0.136-1.341,0.408-1.969c0.27-0.629,0.634-1.168,1.09-1.626c0.456-0.457,0.991-0.819,1.604-1.093
			c0.613-0.269,1.276-0.404,1.99-0.404H71.845z M73.857,80.441c0-0.572-0.192-1.05-0.578-1.436
			c-0.385-0.384-0.864-0.577-1.434-0.577H60.634c-0.57,0-1.048,0.192-1.432,0.577c-0.386,0.386-0.578,0.864-0.578,1.436v4.064
			h13.221c0.543,0,1.007-0.186,1.391-0.556c0.385-0.37,0.593-0.829,0.621-1.368V80.441z"/>
		<path fill="#F9F9FA" d="M81.217,84.547H95.08v3.08H81.217V84.547z"/>
		<path fill="#F9F9FA" d="M120.754,80.441v11.209c0,0.715-0.136,1.378-0.407,1.992c-0.271,0.612-0.634,1.147-1.09,1.602
			c-0.457,0.458-0.999,0.822-1.625,1.093c-0.628,0.27-1.284,0.405-1.968,0.405H104.45c-0.713,0-1.377-0.135-1.989-0.405
			c-0.614-0.271-1.148-0.635-1.606-1.093c-0.455-0.455-0.819-0.99-1.09-1.602c-0.271-0.614-0.407-1.277-0.407-1.992V80.441
			c0-0.686,0.136-1.341,0.407-1.969c0.27-0.629,0.634-1.168,1.09-1.626c0.458-0.457,0.992-0.819,1.606-1.093
			c0.612-0.269,1.275-0.404,1.989-0.404h11.212c0.685,0,1.354,0.143,2.011,0.428v-8.815h3.08v13.308V80.441z M117.673,80.441v-0.13
			c-0.029-0.513-0.236-0.955-0.621-1.326c-0.386-0.371-0.849-0.556-1.39-0.556H104.45c-0.57,0-1.048,0.192-1.432,0.577
			c-0.386,0.386-0.578,0.864-0.578,1.436v11.209c0,0.572,0.191,1.05,0.578,1.436c0.385,0.385,0.862,0.577,1.432,0.577h11.212
			c0.569,0,1.048-0.192,1.433-0.577c0.385-0.386,0.578-0.864,0.578-1.436V80.441z"/>
		<path fill="#F9F9FA" d="M127.129,74.063c-0.57,0-1.063-0.199-1.476-0.598c-0.413-0.398-0.62-0.884-0.62-1.455
			s0.207-1.063,0.62-1.478c0.413-0.411,0.906-0.619,1.476-0.619c0.57,0,1.055,0.208,1.456,0.619
			c0.398,0.415,0.599,0.907,0.599,1.478s-0.201,1.056-0.599,1.455C128.184,73.865,127.7,74.063,127.129,74.063z M125.589,80.441
			c0-0.686,0.128-1.335,0.384-1.949c0.257-0.612,0.615-1.156,1.07-1.626c0.457-0.469,0.985-0.84,1.583-1.114
			c0.6-0.269,1.242-0.404,1.926-0.404v3.08c-0.513,0.029-0.956,0.236-1.326,0.62c-0.371,0.386-0.556,0.851-0.556,1.392v16.301
			h-3.081V80.441z"/>
		<path fill="#F9F9FA" d="M151.135,75.348c0.685,0,1.341,0.135,1.967,0.404c0.628,0.274,1.169,0.636,1.626,1.093
			c0.456,0.458,0.819,0.998,1.092,1.626c0.27,0.628,0.404,1.283,0.404,1.969v11.209v0.386v13.093h-3.078v-8.815
			c-0.602,0.287-1.273,0.428-2.012,0.428h-11.211c-0.713,0-1.377-0.135-1.99-0.405c-0.614-0.271-1.148-0.635-1.605-1.093
			c-0.456-0.455-0.819-0.99-1.09-1.602c-0.271-0.614-0.407-1.277-0.407-1.992V80.441c0-0.686,0.136-1.341,0.407-1.969
			c0.271-0.629,0.634-1.168,1.09-1.626c0.457-0.457,0.991-0.819,1.605-1.093c0.613-0.269,1.276-0.404,1.99-0.404H151.135z
			 M153.146,80.441c0-0.572-0.194-1.05-0.579-1.436c-0.385-0.384-0.863-0.577-1.433-0.577h-11.211c-0.57,0-1.048,0.192-1.433,0.577
			c-0.385,0.386-0.578,0.864-0.578,1.436v11.209c0,0.572,0.192,1.05,0.578,1.436c0.386,0.385,0.863,0.577,1.433,0.577h11.211
			c0.515,0,0.964-0.173,1.349-0.515c0.385-0.343,0.606-0.754,0.663-1.24v-0.258V80.441z"/>
		<path fill="#F9F9FA" d="M162.603,74.063c-0.57,0-1.064-0.199-1.476-0.598c-0.415-0.398-0.62-0.884-0.62-1.455
			s0.205-1.063,0.62-1.478c0.412-0.411,0.906-0.619,1.476-0.619c0.571,0,1.054,0.208,1.454,0.619
			c0.401,0.415,0.601,0.907,0.601,1.478s-0.2,1.056-0.601,1.455C163.657,73.865,163.174,74.063,162.603,74.063z M161.062,80.441
			c0-0.686,0.127-1.335,0.385-1.949c0.256-0.612,0.613-1.156,1.071-1.626c0.455-0.469,0.983-0.84,1.582-1.114
			c0.599-0.269,1.24-0.404,1.926-0.404v3.08c-0.515,0.029-0.957,0.236-1.326,0.62c-0.371,0.386-0.557,0.851-0.557,1.392v16.301
			h-3.08V80.441z"/>
		<path fill="#F9F9FA" d="M173.384,66.961v8.771c0.314-0.144,0.621-0.25,0.921-0.32c0.298-0.072,0.62-0.107,0.96-0.107h0.13h16.304
			v3.081h-16.304c-0.571,0-1.049,0.192-1.433,0.577c-0.384,0.385-0.579,0.864-0.579,1.432v11.254c0,0.543,0.184,1.005,0.557,1.39
			c0.37,0.386,0.827,0.594,1.371,0.622h11.294c0.571,0,1.051-0.192,1.434-0.577c0.385-0.386,0.577-0.851,0.577-1.392h3.083
			c0,0.657-0.122,1.269-0.365,1.839c-0.242,0.572-0.562,1.085-0.961,1.542c-0.401,0.457-0.885,0.827-1.456,1.112
			c-0.571,0.287-1.171,0.457-1.797,0.515v0.042h-0.515h-11.294h-0.046c-0.682-0.029-1.325-0.177-1.924-0.449
			c-0.599-0.271-1.128-0.634-1.584-1.091c-0.457-0.457-0.812-0.992-1.07-1.604c-0.256-0.614-0.385-1.264-0.385-1.949V66.961H173.384
			z"/>
		<path fill="#F9F9FA" d="M217.29,91.908c0.055,0.513,0.268,0.948,0.641,1.304c0.369,0.358,0.813,0.55,1.326,0.579v3.036
			c-0.685,0-1.326-0.126-1.925-0.385c-0.599-0.256-1.143-0.612-1.627-1.07c-0.455,0.429-0.984,0.764-1.582,1.006
			c-0.598,0.242-1.228,0.364-1.882,0.364h-11.212c-0.685,0-1.334-0.135-1.947-0.405c-0.613-0.271-1.15-0.635-1.604-1.093
			c-0.459-0.455-0.821-0.99-1.092-1.602c-0.269-0.614-0.405-1.263-0.405-1.949V80.526c0-0.686,0.136-1.341,0.405-1.97
			c0.271-0.628,0.633-1.168,1.092-1.625c0.454-0.457,0.991-0.82,1.604-1.093c0.613-0.27,1.262-0.407,1.947-0.407h11.212
			c0.683,0,1.331,0.137,1.946,0.407c0.614,0.273,1.148,0.636,1.604,1.093c0.456,0.457,0.819,0.997,1.091,1.625
			c0.271,0.629,0.408,1.284,0.408,1.97v11.167V91.908z M214.208,80.526c0-0.571-0.193-1.051-0.577-1.435
			c-0.385-0.385-0.85-0.577-1.39-0.577h-11.212c-0.541,0-1.006,0.192-1.39,0.577c-0.385,0.385-0.578,0.864-0.578,1.435v11.167
			c0,0.572,0.192,1.048,0.578,1.432c0.385,0.386,0.849,0.579,1.39,0.579h11.212c0.512,0,0.954-0.178,1.325-0.535
			c0.372-0.356,0.585-0.79,0.643-1.304v-0.086v-0.086V80.526z"/>
		<path fill="#F9F9FA" d="M237.747,66.961v8.771c0.314-0.144,0.621-0.25,0.92-0.32c0.3-0.072,0.621-0.107,0.961-0.107h0.131h16.302
			v3.081h-16.302c-0.572,0-1.05,0.192-1.434,0.577c-0.385,0.385-0.578,0.864-0.578,1.432v11.254c0,0.543,0.185,1.005,0.555,1.39
			c0.371,0.386,0.829,0.594,1.37,0.622h11.296c0.571,0,1.05-0.192,1.434-0.577c0.385-0.386,0.578-0.851,0.578-1.392h3.081
			c0,0.657-0.122,1.269-0.363,1.839c-0.243,0.572-0.564,1.085-0.962,1.542c-0.4,0.457-0.887,0.827-1.455,1.112
			c-0.572,0.287-1.17,0.457-1.797,0.515v0.042h-0.515h-11.296h-0.045c-0.684-0.029-1.326-0.177-1.923-0.449
			c-0.6-0.271-1.127-0.634-1.584-1.091c-0.457-0.457-0.814-0.992-1.07-1.604c-0.257-0.614-0.385-1.264-0.385-1.949V66.961H237.747z"
			/>
		<path fill="#F9F9FA" d="M265.432,75.348h11.21c0.685,0,1.342,0.135,1.968,0.404c0.628,0.274,1.17,0.636,1.627,1.093
			c0.454,0.458,0.819,0.992,1.091,1.605c0.271,0.614,0.406,1.277,0.406,1.991h-3.081c0-0.572-0.192-1.05-0.577-1.436
			c-0.385-0.384-0.863-0.577-1.434-0.577h-11.21c-0.57,0-1.05,0.192-1.434,0.577c-0.385,0.386-0.577,0.864-0.577,1.436v16.301
			h-3.082V80.441c0-0.713,0.137-1.377,0.406-1.991c0.272-0.613,0.635-1.147,1.092-1.605c0.455-0.457,0.99-0.819,1.605-1.093
			C264.056,75.483,264.718,75.348,265.432,75.348z"/>
		<path fill="#F9F9FA" d="M302.317,75.348c0.685,0,1.34,0.135,1.967,0.404c0.628,0.274,1.17,0.636,1.627,1.093
			c0.455,0.458,0.819,0.992,1.091,1.605c0.269,0.614,0.405,1.261,0.405,1.945v2.355c-0.029,0.686-0.185,1.32-0.47,1.903
			c-0.285,0.585-0.658,1.093-1.113,1.52c-0.456,0.429-0.986,0.771-1.583,1.028c-0.599,0.256-1.241,0.385-1.926,0.385h-13.222v4.064
			c0,0.572,0.192,1.05,0.578,1.436c0.385,0.385,0.863,0.577,1.432,0.577h11.212c0.57,0,1.048-0.192,1.433-0.577
			c0.385-0.386,0.578-0.864,0.578-1.436h3.08c0,0.715-0.136,1.378-0.405,1.992c-0.272,0.612-0.636,1.147-1.091,1.602
			c-0.457,0.458-0.999,0.822-1.627,1.093c-0.627,0.27-1.283,0.405-1.967,0.405h-11.212c-0.713,0-1.377-0.135-1.99-0.405
			c-0.613-0.271-1.149-0.635-1.604-1.093c-0.455-0.455-0.821-0.99-1.091-1.602c-0.269-0.614-0.406-1.277-0.406-1.992V80.441
			c0-0.686,0.137-1.341,0.406-1.969c0.27-0.629,0.636-1.168,1.091-1.626c0.455-0.457,0.991-0.819,1.604-1.093
			c0.613-0.269,1.276-0.404,1.99-0.404H302.317z M304.328,80.441c0-0.572-0.193-1.05-0.578-1.436
			c-0.385-0.384-0.863-0.577-1.433-0.577h-11.212c-0.569,0-1.047,0.192-1.432,0.577c-0.386,0.386-0.578,0.864-0.578,1.436v4.064
			h13.222c0.541,0,1.006-0.186,1.391-0.556c0.384-0.37,0.592-0.829,0.62-1.368V80.441z"/>
		<path fill="#F9F9FA" d="M327.991,75.348c0.685,0,1.34,0.135,1.968,0.404c0.628,0.274,1.168,0.636,1.625,1.093
			c0.456,0.458,0.82,0.992,1.092,1.605c0.271,0.614,0.406,1.261,0.406,1.945v2.355c-0.029,0.686-0.186,1.32-0.471,1.903
			c-0.285,0.585-0.658,1.093-1.113,1.52c-0.456,0.429-0.985,0.771-1.584,1.028c-0.597,0.256-1.239,0.385-1.925,0.385h-13.221v4.064
			c0,0.572,0.192,1.05,0.577,1.436c0.385,0.385,0.864,0.577,1.433,0.577h11.211c0.571,0,1.051-0.192,1.434-0.577
			c0.385-0.386,0.578-0.864,0.578-1.436h3.08c0,0.715-0.135,1.378-0.406,1.992c-0.272,0.612-0.636,1.147-1.092,1.602
			c-0.457,0.458-0.998,0.822-1.625,1.093c-0.628,0.27-1.283,0.405-1.968,0.405H316.78c-0.713,0-1.377-0.135-1.989-0.405
			c-0.614-0.271-1.15-0.635-1.605-1.093c-0.459-0.455-0.822-0.99-1.092-1.602c-0.269-0.614-0.405-1.277-0.405-1.992V80.441
			c0-0.686,0.136-1.341,0.405-1.969c0.27-0.629,0.633-1.168,1.092-1.626c0.455-0.457,0.991-0.819,1.605-1.093
			c0.612-0.269,1.275-0.404,1.989-0.404H327.991z M330.003,80.441c0-0.572-0.193-1.05-0.578-1.436
			c-0.384-0.384-0.863-0.577-1.434-0.577H316.78c-0.569,0-1.049,0.192-1.433,0.577c-0.385,0.386-0.577,0.864-0.577,1.436v4.064
			h13.221c0.541,0,1.005-0.186,1.39-0.556c0.385-0.37,0.594-0.829,0.622-1.368V80.441z"/>
	</g>
	<g>
		
			<text transform="matrix(1 0 0 1 160.9061 112.7018)" fill="#F9F9FA" font-family="'SquareTypeB'" font-size="14.2388" letter-spacing="3">fruits and roots</text>
	</g>
	<g>
		
			<rect x="209.579" y="34.526" transform="matrix(0.9558 -0.294 0.294 0.9558 -4.235 67.6658)" opacity="0.8" fill="#F9F9FA" width="26.788" height="26.79"/>
		
			<rect x="191.481" y="24.939" transform="matrix(0.9377 -0.3474 0.3474 0.9377 -0.5581 73.5538)" opacity="0.8" fill="#F9F9FA" width="26.788" height="26.79"/>
		
			<rect x="223.075" y="26.635" transform="matrix(0.9612 0.276 -0.276 0.9612 20.2327 -63.7098)" opacity="0.8" fill="#F9F9FA" width="26.789" height="26.79"/>
		
			<rect x="221.271" y="11.036" transform="matrix(0.9993 0.0385 -0.0385 0.9993 1.1153 -9.0215)" opacity="0.8" fill="#F9F9FA" width="26.788" height="26.79"/>
		
			<rect x="194.224" y="15.145" transform="matrix(0.791 -0.6119 0.6119 0.791 25.936 132.9966)" opacity="0.8" fill="#F9F9FA" width="26.789" height="26.788"/>
		
			<rect x="207.37" y="1.241" transform="matrix(0.9952 -0.0974 0.0974 0.9952 -0.3761 21.5644)" opacity="0.8" fill="#F9F9FA" width="26.788" height="26.789"/>
		<g>
			<polygon fill="#F9F9FA" points="225.19,62.625 221.8,96.827 230.277,96.827 228.899,61.567 			"/>
			<g>
				<path fill="#F9F9FA" d="M222.046,96.098l1.27,0.692c-0.616,0.692-1.239,1.55-1.791,2.59l-0.338-0.388
					c0,0-2.071-0.253-3.354,2.072c0,0,0.006,0.096,0.104,0.02c0.103-0.083,1.492-1.404,2.927-1.106
					c0.132,0.025,0.229,0.039,0.331,0.049c-0.664,1.432-1.182,3.175-1.359,5.287c0,0,0.137,0.269,0.305-0.11
					c0.111-0.245,1.013-2.629,2.714-4.747c0.283,2.1-0.845,4.192-0.924,4.353c-0.077,0.168,0.042,0.162,0.042,0.162
					c2.473-2.352,1.889-5.618,1.889-5.618l-0.005-0.006c0.807-0.787,1.749-1.463,2.821-1.86c0.28-0.106,0.529-0.202,0.758-0.3
					c1.179,1.015,1.756,2.755,1.808,2.891c0.063,0.163,0.129,0.058,0.129,0.058c-0.062-1.511-0.546-2.586-1.074-3.347h0.138
					c0.97,0.633,1.805,1.482,2.498,2.365c0.479,2.213-0.79,4.538-0.873,4.702c-0.075,0.174,0.044,0.165,0.044,0.165
					c1.15-1.096,1.627-2.377,1.82-3.444c1.003,1.6,1.548,3.018,1.626,3.204c0.175,0.379,0.312,0.11,0.312,0.11
					c-0.05-0.574-0.126-1.117-0.226-1.635c0.545,0.281,1.422,0.525,2.469,0.008c0,0,0.034-0.071-0.063-0.066
					c-0.1,0-1.558,0.133-2.411-0.847c-0.092-0.11-0.175-0.192-0.246-0.256c-0.723-2.797-2.059-4.741-3.295-6.029l-0.374-1.64h-7.578
					L222.046,96.098z"/>
			</g>
		</g>
	</g>
</g>
</svg>
